<?xml version="1.0" encoding="UTF-8"?>
<svg version="1.1" xmlns="http://www.w3.org/2000/svg" width="1024" height="1024">

<path d="M0 0 C1.62098965 -0.00436032 1.62098965 -0.00436032 3.27472657 -0.00880873 C6.89078622 -0.01609938 10.50667569 -0.00916959 14.12273407 -0.002285 C16.74348681 -0.0045898 19.3642389 -0.00776644 21.98498964 -0.01173949 C27.68043295 -0.01895114 33.37583831 -0.01875095 39.07128334 -0.01364517 C47.54067656 -0.0060733 56.01003783 -0.00995128 64.47943084 -0.01606179 C79.60665222 -0.02658966 94.73385669 -0.02568192 109.86107968 -0.01990396 C123.09918361 -0.01487241 136.33728135 -0.01355966 149.57538605 -0.01594925 C150.45357761 -0.01610202 151.33176917 -0.01625479 152.2365726 -0.01641219 C155.80145859 -0.01703487 159.36634458 -0.01767167 162.93123056 -0.01833172 C196.37105024 -0.02444941 229.81085916 -0.01890328 263.25067718 -0.00813792 C292.95848283 0.00135325 322.66627134 0.00050399 352.37407684 -0.00905991 C385.75282603 -0.01976969 419.13156571 -0.02401554 452.51031637 -0.01783538 C456.06869856 -0.01719395 459.62708076 -0.01656827 463.18546295 -0.01594925 C464.49970493 -0.01571202 464.49970493 -0.01571202 465.84049726 -0.01546999 C479.07012263 -0.01319526 492.29974112 -0.0158552 505.52936554 -0.02090836 C520.57237106 -0.0266255 535.61535704 -0.02520011 550.65836012 -0.01434687 C559.07688813 -0.00847338 567.49537383 -0.00809228 575.91390074 -0.01563922 C582.19803762 -0.02065136 588.48212457 -0.01521679 594.76625532 -0.00569007 C597.30985842 -0.00345312 599.85346718 -0.0045989 602.39706665 -0.00944164 C605.85174166 -0.01551522 609.30618605 -0.00929275 612.760849 0 C613.75047974 -0.00468233 614.74011049 -0.00936466 615.75973004 -0.01418889 C629.57450738 0.0601782 642.43802104 3.81993612 652.8179245 13.31418228 C659.52235656 20.58253854 664.9982482 30.82418172 665.01037633 40.83491498 C665.01390475 41.75744779 665.01743317 42.67998059 665.02106851 43.63046893 C665.01927185 45.14844691 665.01927185 45.14844691 665.01743889 46.6970911 C665.02009072 47.77777169 665.02274254 48.85845228 665.02547473 49.97188076 C665.03318637 53.62414196 665.03372762 57.27636965 665.03432465 60.92863846 C665.03833805 63.56127416 665.04273934 66.19390665 665.0476042 68.82654065 C665.05868192 75.32319263 665.06432897 81.81983921 665.06831308 88.31649897 C665.07332115 96.09616383 665.0840486 103.8758182 665.09479482 111.65547687 C665.12043062 130.46239761 665.13546226 149.26932242 665.14830528 168.07625561 C665.15255984 174.30601757 665.15712557 180.53577924 665.1618886 186.76554084 C665.18715061 219.89033766 665.2091985 253.01513497 665.22161674 286.13993931 C665.22453807 293.81561472 665.22750559 301.49129011 665.23052216 309.16696548 C665.23089306 310.12057188 665.23126397 311.07417827 665.23164612 312.05668183 C665.24379829 342.96628888 665.27473627 373.87583896 665.31644368 404.78541926 C665.35924419 436.56308957 665.38585946 468.3407298 665.39109146 500.11842972 C665.39183189 504.60821763 665.39274257 509.09800549 665.39374924 513.58779335 C665.39393985 514.47141231 665.39413047 515.35503127 665.39432686 516.26542657 C665.39783846 530.47756578 665.41812739 544.68963356 665.44454587 558.90174656 C665.4707107 573.19314526 665.47840941 587.48446156 665.46744458 601.77588079 C665.46147485 610.262295 665.46934203 618.7484294 665.49727542 627.23480118 C665.51457195 632.91060073 665.51354091 638.58621023 665.49790773 644.26201401 C665.48952498 647.49158511 665.49160422 650.72051991 665.51051919 653.95006172 C665.61531436 673.01227375 664.715922 688.68580407 650.8804245 703.25168228 C641.97854998 711.14602107 632.38545708 717.37137856 620.19930011 717.37933278 C619.28040597 717.38234875 618.36151184 717.38536472 617.41477242 717.38847208 C616.41200661 717.38670261 615.4092408 717.38493314 614.37608814 717.38311005 C612.76375232 717.386189 612.76375232 717.386189 611.11884406 717.38933015 C607.49234718 717.39501539 603.86588809 717.39354102 600.23938751 717.39212418 C597.62295048 717.39470693 595.00651385 717.39771984 592.39007777 717.40112758 C585.93753303 717.40870904 579.48499657 717.41090071 573.03244784 717.41145663 C565.3050134 717.41237012 557.57758662 717.41903721 549.85015548 717.42580346 C531.17298535 717.44186702 512.49581603 717.44776704 493.81864024 717.4525522 C484.98439478 717.45488768 476.15014998 717.45849027 467.31590504 717.46224758 C437.07951491 717.47508309 406.84312516 717.48580253 376.60673237 717.48925018 C374.70850821 717.48947182 372.81028405 717.4896936 370.91205988 717.48991553 C369.00923475 717.49013618 367.10640962 717.49035666 365.20358449 717.49057698 C361.3861477 717.49101954 357.5687109 717.49146665 353.75127411 717.49191666 C352.33151948 717.49208074 352.33151948 717.49208074 350.88308293 717.49224814 C320.1877361 717.49587936 289.49241288 717.51180183 258.79707509 717.53510702 C226.34934352 717.55969769 193.90162546 717.57342266 161.4538843 717.5746181 C157.89261575 717.57478956 154.33134721 717.57500499 150.77007866 717.57525253 C149.89318484 717.5753083 149.01629101 717.57536407 148.11282465 717.57542153 C133.99554749 717.57657261 119.87829455 717.58759938 105.76102557 717.60213959 C91.57402673 717.61649906 77.38705897 717.61974467 63.20005486 717.61169961 C54.77042021 717.60724084 46.34088579 717.61111384 37.91126429 717.62693812 C31.618651 717.63782601 25.32614132 717.63305492 19.03353008 717.62216625 C16.48641078 717.6202011 13.9392815 717.62332517 11.39217625 717.63201061 C7.93259856 717.64306204 4.47352997 717.63564308 1.01396656 717.62361908 C0.02290658 717.63121427 -0.9681534 717.63880947 -1.9892455 717.64663482 C-15.48129537 717.54526313 -27.01758453 712.41632505 -36.8695755 703.25168228 C-47.31377006 692.29947254 -51.43822328 679.26541944 -51.37684441 664.31852627 C-51.38035048 663.23372029 -51.38385656 662.14891431 -51.38746887 661.03123543 C-51.39678734 657.3890244 -51.39185831 653.7469731 -51.38700104 650.1047554 C-51.39073706 647.46993781 -51.39525863 644.83513211 -51.40073168 642.20031863 C-51.41102942 636.46793427 -51.41387587 630.73558369 -51.41181946 625.00319099 C-51.40876892 616.47877203 -51.4170946 607.95439043 -51.42756871 599.42997873 C-51.44691095 583.31948121 -51.452537 567.20899642 -51.45368282 551.09848865 C-51.45460185 538.65788547 -51.45871824 526.21728728 -51.46508408 513.77668571 C-51.46687916 510.19588704 -51.46865878 506.61508835 -51.47043383 503.03428966 C-51.47087593 502.14409913 -51.47131802 501.25390861 -51.47177352 500.33674261 C-51.48408187 475.2974297 -51.49197464 450.25811852 -51.49108696 425.21880245 C-51.4910558 424.27476028 -51.49102464 423.3307181 -51.49099254 422.35806859 C-51.49082633 417.5732478 -51.49062825 412.78842701 -51.49042313 408.00360622 C-51.49038324 407.05331967 -51.49034335 406.10303311 -51.49030225 405.12394999 C-51.49022137 403.20223941 -51.49013778 401.28052883 -51.49005147 399.35881825 C-51.48882581 369.45663174 -51.50384178 339.55449058 -51.53119659 309.65231705 C-51.56191512 276.05932354 -51.57912925 242.46635983 -51.57727015 208.8733514 C-51.57712089 205.29160965 -51.57702348 201.7098679 -51.57696152 198.12812614 C-51.57693821 197.24620664 -51.5769149 196.36428714 -51.57689088 195.45564281 C-51.57682933 181.26154565 -51.58960251 167.06748785 -51.60682605 152.87340239 C-51.62377646 138.60944898 -51.62576098 124.34555318 -51.6126074 110.08159526 C-51.60521451 101.60769311 -51.60888633 93.13396594 -51.62849208 84.66008231 C-51.64048573 78.99785939 -51.63790791 73.33576328 -51.62355109 67.67354619 C-51.6157828 64.4485918 -51.61646376 61.2240434 -51.63046579 57.99910017 C-51.64457225 54.5198766 -51.63401067 51.04155467 -51.61735344 47.56236172 C-51.6272898 46.56836891 -51.63722616 45.5743761 -51.64746362 44.5502623 C-51.51752112 31.71380831 -46.06553978 21.71216243 -37.4320755 12.43918228 C-26.58973424 2.43086727 -14.28664544 -0.06759574 0 0 Z " fill="#AEAEAC" transform="translate(205.11957550048828,152.74831771850586)"/>
<path d="M0 0 C1.62098965 -0.00436032 1.62098965 -0.00436032 3.27472657 -0.00880873 C6.89078622 -0.01609938 10.50667569 -0.00916959 14.12273407 -0.002285 C16.74348681 -0.0045898 19.3642389 -0.00776644 21.98498964 -0.01173949 C27.68043295 -0.01895114 33.37583831 -0.01875095 39.07128334 -0.01364517 C47.54067656 -0.0060733 56.01003783 -0.00995128 64.47943084 -0.01606179 C79.60665222 -0.02658966 94.73385669 -0.02568192 109.86107968 -0.01990396 C123.09918361 -0.01487241 136.33728135 -0.01355966 149.57538605 -0.01594925 C150.45357761 -0.01610202 151.33176917 -0.01625479 152.2365726 -0.01641219 C155.80145859 -0.01703487 159.36634458 -0.01767167 162.93123056 -0.01833172 C196.37105024 -0.02444941 229.81085916 -0.01890328 263.25067718 -0.00813792 C292.95848283 0.00135325 322.66627134 0.00050399 352.37407684 -0.00905991 C385.75282603 -0.01976969 419.13156571 -0.02401554 452.51031637 -0.01783538 C456.06869856 -0.01719395 459.62708076 -0.01656827 463.18546295 -0.01594925 C464.49970493 -0.01571202 464.49970493 -0.01571202 465.84049726 -0.01546999 C479.07012263 -0.01319526 492.29974112 -0.0158552 505.52936554 -0.02090836 C520.57237106 -0.0266255 535.61535704 -0.02520011 550.65836012 -0.01434687 C559.07688813 -0.00847338 567.49537383 -0.00809228 575.91390074 -0.01563922 C582.19803762 -0.02065136 588.48212457 -0.01521679 594.76625532 -0.00569007 C597.30985842 -0.00345312 599.85346718 -0.0045989 602.39706665 -0.00944164 C605.85174166 -0.01551522 609.30618605 -0.00929275 612.760849 0 C613.75047974 -0.00468233 614.74011049 -0.00936466 615.75973004 -0.01418889 C629.57450738 0.0601782 642.43802104 3.81993612 652.8179245 13.31418228 C659.52235656 20.58253854 664.9982482 30.82418172 665.01037633 40.83491498 C665.01390475 41.75744779 665.01743317 42.67998059 665.02106851 43.63046893 C665.01927185 45.14844691 665.01927185 45.14844691 665.01743889 46.6970911 C665.02009072 47.77777169 665.02274254 48.85845228 665.02547473 49.97188076 C665.03318637 53.62414196 665.03372762 57.27636965 665.03432465 60.92863846 C665.03833805 63.56127416 665.04273934 66.19390665 665.0476042 68.82654065 C665.05868192 75.32319263 665.06432897 81.81983921 665.06831308 88.31649897 C665.07332115 96.09616383 665.0840486 103.8758182 665.09479482 111.65547687 C665.12043062 130.46239761 665.13546226 149.26932242 665.14830528 168.07625561 C665.15255984 174.30601757 665.15712557 180.53577924 665.1618886 186.76554084 C665.18715061 219.89033766 665.2091985 253.01513497 665.22161674 286.13993931 C665.22453807 293.81561472 665.22750559 301.49129011 665.23052216 309.16696548 C665.23089306 310.12057188 665.23126397 311.07417827 665.23164612 312.05668183 C665.24379829 342.96628888 665.27473627 373.87583896 665.31644368 404.78541926 C665.35924419 436.56308957 665.38585946 468.3407298 665.39109146 500.11842972 C665.39183189 504.60821763 665.39274257 509.09800549 665.39374924 513.58779335 C665.39393985 514.47141231 665.39413047 515.35503127 665.39432686 516.26542657 C665.39783846 530.47756578 665.41812739 544.68963356 665.44454587 558.90174656 C665.4707107 573.19314526 665.47840941 587.48446156 665.46744458 601.77588079 C665.46147485 610.262295 665.46934203 618.7484294 665.49727542 627.23480118 C665.51457195 632.91060073 665.51354091 638.58621023 665.49790773 644.26201401 C665.48952498 647.49158511 665.49160422 650.72051991 665.51051919 653.95006172 C665.61531436 673.01227375 664.715922 688.68580407 650.8804245 703.25168228 C641.97854998 711.14602107 632.38545708 717.37137856 620.19930011 717.37933278 C619.28040597 717.38234875 618.36151184 717.38536472 617.41477242 717.38847208 C616.41200661 717.38670261 615.4092408 717.38493314 614.37608814 717.38311005 C612.76375232 717.386189 612.76375232 717.386189 611.11884406 717.38933015 C607.49234718 717.39501539 603.86588809 717.39354102 600.23938751 717.39212418 C597.62295048 717.39470693 595.00651385 717.39771984 592.39007777 717.40112758 C585.93753303 717.40870904 579.48499657 717.41090071 573.03244784 717.41145663 C565.3050134 717.41237012 557.57758662 717.41903721 549.85015548 717.42580346 C531.17298535 717.44186702 512.49581603 717.44776704 493.81864024 717.4525522 C484.98439478 717.45488768 476.15014998 717.45849027 467.31590504 717.46224758 C437.07951491 717.47508309 406.84312516 717.48580253 376.60673237 717.48925018 C374.70850821 717.48947182 372.81028405 717.4896936 370.91205988 717.48991553 C369.00923475 717.49013618 367.10640962 717.49035666 365.20358449 717.49057698 C361.3861477 717.49101954 357.5687109 717.49146665 353.75127411 717.49191666 C352.33151948 717.49208074 352.33151948 717.49208074 350.88308293 717.49224814 C320.1877361 717.49587936 289.49241288 717.51180183 258.79707509 717.53510702 C226.34934352 717.55969769 193.90162546 717.57342266 161.4538843 717.5746181 C157.89261575 717.57478956 154.33134721 717.57500499 150.77007866 717.57525253 C149.89318484 717.5753083 149.01629101 717.57536407 148.11282465 717.57542153 C133.99554749 717.57657261 119.87829455 717.58759938 105.76102557 717.60213959 C91.57402673 717.61649906 77.38705897 717.61974467 63.20005486 717.61169961 C54.77042021 717.60724084 46.34088579 717.61111384 37.91126429 717.62693812 C31.618651 717.63782601 25.32614132 717.63305492 19.03353008 717.62216625 C16.48641078 717.6202011 13.9392815 717.62332517 11.39217625 717.63201061 C7.93259856 717.64306204 4.47352997 717.63564308 1.01396656 717.62361908 C0.02290658 717.63121427 -0.9681534 717.63880947 -1.9892455 717.64663482 C-15.48129537 717.54526313 -27.01758453 712.41632505 -36.8695755 703.25168228 C-47.31377006 692.29947254 -51.43822328 679.26541944 -51.37684441 664.31852627 C-51.38035048 663.23372029 -51.38385656 662.14891431 -51.38746887 661.03123543 C-51.39678734 657.3890244 -51.39185831 653.7469731 -51.38700104 650.1047554 C-51.39073706 647.46993781 -51.39525863 644.83513211 -51.40073168 642.20031863 C-51.41102942 636.46793427 -51.41387587 630.73558369 -51.41181946 625.00319099 C-51.40876892 616.47877203 -51.4170946 607.95439043 -51.42756871 599.42997873 C-51.44691095 583.31948121 -51.452537 567.20899642 -51.45368282 551.09848865 C-51.45460185 538.65788547 -51.45871824 526.21728728 -51.46508408 513.77668571 C-51.46687916 510.19588704 -51.46865878 506.61508835 -51.47043383 503.03428966 C-51.47087593 502.14409913 -51.47131802 501.25390861 -51.47177352 500.33674261 C-51.48408187 475.2974297 -51.49197464 450.25811852 -51.49108696 425.21880245 C-51.4910558 424.27476028 -51.49102464 423.3307181 -51.49099254 422.35806859 C-51.49082633 417.5732478 -51.49062825 412.78842701 -51.49042313 408.00360622 C-51.49038324 407.05331967 -51.49034335 406.10303311 -51.49030225 405.12394999 C-51.49022137 403.20223941 -51.49013778 401.28052883 -51.49005147 399.35881825 C-51.48882581 369.45663174 -51.50384178 339.55449058 -51.53119659 309.65231705 C-51.56191512 276.05932354 -51.57912925 242.46635983 -51.57727015 208.8733514 C-51.57712089 205.29160965 -51.57702348 201.7098679 -51.57696152 198.12812614 C-51.57693821 197.24620664 -51.5769149 196.36428714 -51.57689088 195.45564281 C-51.57682933 181.26154565 -51.58960251 167.06748785 -51.60682605 152.87340239 C-51.62377646 138.60944898 -51.62576098 124.34555318 -51.6126074 110.08159526 C-51.60521451 101.60769311 -51.60888633 93.13396594 -51.62849208 84.66008231 C-51.64048573 78.99785939 -51.63790791 73.33576328 -51.62355109 67.67354619 C-51.6157828 64.4485918 -51.61646376 61.2240434 -51.63046579 57.99910017 C-51.64457225 54.5198766 -51.63401067 51.04155467 -51.61735344 47.56236172 C-51.6272898 46.56836891 -51.63722616 45.5743761 -51.64746362 44.5502623 C-51.51752112 31.71380831 -46.06553978 21.71216243 -37.4320755 12.43918228 C-26.58973424 2.43086727 -14.28664544 -0.06759574 0 0 Z M478.8804245 16.25168228 C478.87895794 16.95036926 478.87749138 17.64905624 478.87598038 18.36891556 C478.83889132 35.38771409 478.77984888 52.40629555 478.69652176 69.42493057 C478.65675158 77.65510754 478.62434886 85.88518918 478.60942841 94.11545181 C478.59640136 101.2908971 478.56940999 108.46613243 478.52581143 115.64145947 C478.50322007 119.43903496 478.48751241 123.23635174 478.48854065 127.0340004 C478.48928866 130.61284773 478.47128244 134.19112366 478.43925667 137.76982307 C478.4267552 139.70054918 478.43381076 141.63137134 478.44156647 143.56212234 C478.35667427 150.66292581 477.52806057 155.15052739 473.8804245 161.25168228 C473.03027317 164.63635401 473.03027317 164.63635401 472.6929245 168.00168228 C472.48602997 169.63363541 472.48602997 169.63363541 472.27495575 171.29855728 C471.74475238 176.6110901 471.30745467 181.92997633 470.8804245 187.25168228 C470.00345917 187.22138931 469.12649384 187.19109634 468.2229538 187.15988541 C445.76747326 186.40336776 423.34809712 186.11751612 400.8804245 186.25168228 C411.96991052 173.82162505 423.53398761 162.51269671 436.5054245 152.06418228 C437.45626923 151.29666641 437.45626923 151.29666641 438.42632294 150.51364517 C441.29667224 148.22059168 444.13385924 146.08638585 447.216362 144.07590103 C450.07774701 142.35991792 450.07774701 142.35991792 451.8804245 139.25168228 C451.53596852 134.74318046 451.53596852 134.74318046 448.8804245 131.25168228 C444.61920238 130.72160272 442.45997668 130.90640182 438.7397995 133.12277603 C437.68913528 133.96073626 436.65310669 134.81729135 435.6304245 135.68918228 C435.06815155 136.14655777 434.5058786 136.60393326 433.92656708 137.07516861 C432.77669989 138.01307722 431.63249985 138.95797839 430.49419403 139.90988541 C429.06869648 141.09514025 427.6151455 142.24647839 426.15776825 143.39230728 C413.28950408 153.56270008 400.36391519 165.15538545 390.1304245 178.00168228 C387.79684147 180.92274076 385.5289173 183.60318948 382.8804245 186.25168228 C357.8004245 186.58168228 332.7204245 186.91168228 306.8804245 187.25168228 C306.8804245 244.01168228 306.8804245 300.77168228 306.8804245 359.25168228 C333.2804245 359.25168228 359.6804245 359.25168228 386.8804245 359.25168228 C376.74729845 371.63661412 376.74729845 371.63661412 372.47026825 375.89230728 C371.54278778 376.81785416 370.61530731 377.74340103 369.65972137 378.69699478 C368.72192841 379.62254166 367.78413544 380.54808853 366.8179245 381.50168228 C365.86634676 382.4517968 364.91517381 383.4023169 363.96440887 384.35324478 C358.76204817 389.52302285 353.45400968 394.4862809 347.8804245 399.25168228 C347.5504245 399.58168228 347.2204245 399.91168228 346.8804245 400.25168228 C345.21290804 400.21892749 343.54606475 400.14977768 341.8804245 400.06418228 C335.19407908 400.03816537 329.99620238 401.28968743 325.060112 405.98215103 C321.12427816 410.74508039 320.02350808 415.27278482 318.8804245 421.25168228 C318.26634735 421.37696304 317.6522702 421.5022438 317.01958466 421.63132095 C314.17834398 422.21957783 311.3420868 422.82924527 308.5054245 423.43918228 C307.05716278 423.73405533 307.05716278 423.73405533 305.57964325 424.03488541 C299.61437264 425.33603504 294.51777595 427.14567876 289.14751434 430.06149673 C286.77853788 431.30517111 284.37778145 432.29609754 281.8804245 433.25168228 C269.96648389 414.80295164 259.02275722 395.89862374 248.97368622 376.37082291 C247.96428187 374.4142285 246.94155734 372.46524441 245.91558075 370.51730728 C241.89560906 362.74125701 238.66039891 354.82210043 235.72222137 346.59445572 C234.77429688 343.95632247 233.80494116 341.32657534 232.8335495 338.69699478 C232.11968085 336.75701091 231.40613692 334.81690751 230.6929245 332.87668228 C230.35978241 331.973694 230.02664032 331.07070572 229.68340302 330.14035416 C227.52967467 324.23533682 225.61929388 318.29179424 223.8804245 312.25168228 C224.8090329 311.98363785 224.8090329 311.98363785 225.75640106 311.71017838 C233.96721104 309.28434059 239.65321753 305.92328011 243.8804245 298.25168228 C246.55346217 292.3709994 246.86779147 286.0886653 245.263237 279.85324478 C242.67161881 273.13338524 238.14595617 268.45907528 231.75933075 265.15402603 C228.02455886 263.63611307 224.8645623 263.13470414 220.8804245 263.25168228 C220.76827606 262.32549088 220.76827606 262.32549088 220.653862 261.38058853 C219.87599115 256.37018513 218.94362914 252.99445743 215.7554245 249.00168228 C213.20087534 245.3893454 212.53012706 243.10942405 212.638237 238.70090103 C212.66546844 237.46356216 212.69269989 236.2262233 212.72075653 234.95138931 C212.74542999 234.2260701 212.77010345 233.50075089 212.7955246 232.7534523 C212.89372345 229.85979833 212.96786268 226.96582362 213.04399872 224.0715065 C213.21455555 218.07201047 213.45510937 212.07741064 213.72270966 206.08151627 C213.82835339 203.55800469 213.9190365 201.03382484 213.99517059 198.50925064 C214.1080005 194.82847233 214.27029628 191.15273823 214.4429245 187.47433853 C214.46725555 186.35132843 214.49158661 185.22831833 214.51665497 184.07127762 C214.94907321 176.39552416 214.94907321 176.39552416 217.69025421 173.02893448 C219.68178123 171.29776137 221.74003535 169.78967366 223.8804245 168.25168228 C225.72697652 165.84096347 225.72697652 165.84096347 226.8179245 163.50168228 C227.19819794 162.76433853 227.57847137 162.02699478 227.97026825 161.26730728 C230.89334511 154.79388384 231.09400749 147.19718753 229.00933075 140.41965103 C225.52072073 132.9734703 220.77576226 127.31229725 213.2554245 123.81418228 C205.39819235 121.06773335 197.16723143 120.81667765 189.5054245 124.25168228 C182.18535513 128.46518562 177.67072359 134.37319074 174.8804245 142.25168228 C173.9935495 141.92168228 173.1066745 141.59168228 172.1929245 141.25168228 C165.60409968 139.34794396 157.45635755 139.25170264 150.8804245 141.25168228 C150.76827606 140.30808853 150.76827606 140.30808853 150.653862 139.34543228 C149.49372696 131.79318062 146.83004316 126.47695003 140.856987 121.59933853 C137.07801304 119.02276538 133.23640705 118.24735394 128.7554245 117.93918228 C124.04101537 117.10275486 123.58992331 116.01001934 120.8804245 112.25168228 C114.71053287 107.83211452 108.36409342 106.22588343 100.8804245 107.25168228 C93.44599433 109.81071462 88.85396881 113.40010998 84.76714325 120.06808853 C83.6414728 122.84011401 83.71190644 125.14272053 83.6929245 128.12668228 C83.33590468 133.67733001 83.33590468 133.67733001 81.36870575 136.15793228 C80.13710277 137.12875559 78.88150334 138.06996097 77.60308075 138.97824478 C74.83883943 141.0216522 73.93845638 143.01534948 72.8804245 146.25168228 C72.06993375 153.0324077 73.26124866 158.03113965 75.8804245 164.25168228 C75.8804245 165.24168228 75.8804245 166.23168228 75.8804245 167.25168228 C74.122612 168.61105728 74.122612 168.61105728 71.7554245 170.00168228 C67.37393814 172.77731582 63.63447974 175.79119281 60.8804245 180.25168228 C60.8804245 181.24168228 60.8804245 182.23168228 60.8804245 183.25168228 C60.08378387 182.72767838 60.08378387 182.72767838 59.2710495 182.19308853 C58.56464325 181.73804947 57.858237 181.28301041 57.1304245 180.81418228 C56.08628387 180.13549088 56.08628387 180.13549088 55.0210495 179.44308853 C48.70414722 175.92729438 39.91537879 176.24245569 32.8804245 177.25168228 C27.07914387 179.42362515 23.66562909 181.6812731 20.8804245 187.25168228 C1.7404245 187.25168228 -17.3995755 187.25168228 -37.1195755 187.25168228 C-37.1195755 244.01168228 -37.1195755 300.77168228 -37.1195755 359.25168228 C18.6504245 359.25168228 74.4204245 359.25168228 131.8804245 359.25168228 C132.2104245 361.23168228 132.5404245 363.21168228 132.8804245 365.25168228 C133.225306 366.38935578 133.57018749 367.52702929 133.92551994 368.69917774 C134.90006079 372.32473462 135.14101998 375.34643547 135.1588974 379.09175491 C135.1646898 379.74293716 135.1704822 380.39411941 135.17645013 381.06503445 C135.19332987 383.22682994 135.19631611 385.38841042 135.19927216 387.55026627 C135.20857867 389.10793448 135.21874841 390.66559774 135.22971344 392.22325516 C135.25694604 396.43757179 135.27214281 400.65185511 135.28514147 404.86623645 C135.30080157 409.27584944 135.32758259 413.68539472 135.3531723 418.09495926 C135.39990917 426.43870251 135.4366779 434.78245857 135.46984518 443.12626559 C135.50810258 452.62810282 135.55750325 462.12987197 135.60782933 471.63165176 C135.71107344 491.17161285 135.79996301 510.711615 135.8804245 530.25168228 C141.1604245 530.25168228 146.4404245 530.25168228 151.8804245 530.25168228 C151.8804245 532.56168228 151.8804245 534.87168228 151.8804245 537.25168228 C152.3960495 538.42730728 152.9116745 539.60293228 153.4429245 540.81418228 C156.32466369 547.70529774 152.48068777 554.26351903 149.8804245 560.81418228 C149.14753637 562.66818425 148.41824375 564.52361242 147.6929245 566.38058853 C147.36936981 567.19600113 147.04581512 568.01141373 146.71245575 568.8515358 C143.53132203 578.02809848 143.63161275 588.46975167 147.8804245 597.25168228 C151.61175178 604.06007053 151.61175178 604.06007053 157.8804245 608.25168228 C157.5916745 608.79953384 157.3029245 609.34738541 157.0054245 609.91183853 C153.42170998 617.56456224 152.70145927 624.89092885 153.8804245 633.25168228 C156.92285414 641.43291534 162.68530245 646.73460905 170.0054245 651.12668228 C177.75063545 653.98380454 186.01285984 652.79917387 193.6147995 650.16574478 C194.25536285 649.94508347 194.89592621 649.72442215 195.55590057 649.49707413 C204.13157889 646.51494719 212.62934621 643.3135104 221.1304245 640.12668228 C222.9773274 639.43662974 224.82433532 638.74685825 226.67144012 638.05734634 C230.6263178 636.5806842 234.58069139 635.10268303 238.53472137 633.62375259 C248.68639785 629.82767737 258.84311199 626.0451088 268.99944305 622.26150894 C272.31969997 621.02430955 275.63964583 619.78627877 278.95952606 618.548069 C281.02690367 617.77738447 283.09428625 617.00671326 285.1616745 616.23605728 C286.08401886 615.89186752 287.00636322 615.54767776 287.95665741 615.19305801 C294.25346429 612.84671141 300.56474873 610.54829165 306.8804245 608.25168228 C306.8804245 639.60168228 306.8804245 670.95168228 306.8804245 703.25168228 C363.6404245 703.25168228 420.4004245 703.25168228 478.8804245 703.25168228 C478.8804245 646.49168228 478.8804245 589.73168228 478.8804245 531.25168228 C535.6404245 531.25168228 592.4004245 531.25168228 650.8804245 531.25168228 C650.8804245 474.49168228 650.8804245 417.73168228 650.8804245 359.25168228 C633.3904245 359.25168228 615.9004245 359.25168228 597.8804245 359.25168228 C599.2004245 354.63168228 600.5204245 350.01168228 601.8804245 345.25168228 C606.23064002 326.75228093 609.10124204 307.96072958 609.2554245 288.93918228 C609.26928192 287.90052017 609.28313934 286.86185806 609.29741669 285.79172134 C609.29129364 284.83362564 609.28517059 283.87552994 609.278862 282.88840103 C609.27547821 282.03979507 609.27209442 281.19118912 609.26860809 280.31686783 C609.14050751 279.6353566 609.01240692 278.95384537 608.8804245 278.25168228 C605.98580549 275.89028926 605.98580549 275.89028926 602.3179245 276.43918228 C598.62216698 276.9000799 598.62216698 276.9000799 596.8804245 280.25168228 C596.49983988 283.00660134 596.49983988 283.00660134 596.42339325 286.15793228 C596.36562714 287.36352798 596.30786102 288.56912369 596.24834442 289.81125259 C596.15903656 291.76176529 596.15903656 291.76176529 596.0679245 293.75168228 C594.99556605 313.5892626 591.57273741 332.84976547 585.79839325 351.87277603 C584.70564231 355.31146587 584.70564231 355.31146587 584.8804245 359.25168228 C578.2804245 359.25168228 571.6804245 359.25168228 564.8804245 359.25168228 C566.272612 355.10605728 566.272612 355.10605728 567.6929245 350.87668228 C569.86142271 344.17134223 571.60794607 337.51980298 572.7554245 330.56418228 C572.87506561 329.84762466 572.99470673 329.13106705 573.11797333 328.39279556 C574.58433496 320.08343047 574.58433496 320.08343047 572.7554245 312.25168228 C569.94879411 310.75481274 568.00284607 310.79632914 564.8804245 311.25168228 C562.10905162 314.14734502 561.41225082 316.55699039 560.92339325 320.47824478 C560.77966278 321.51207291 560.63593231 322.54590103 560.48784637 323.61105728 C560.21500623 325.73286529 559.94652905 327.85524052 559.68315887 329.97824478 C558.24255926 340.24487609 555.33392454 347.89118217 551.8804245 358.25168228 C533.0704245 358.58168228 514.2604245 358.91168228 494.8804245 359.25168228 C503.8804245 340.25168228 503.8804245 340.25168228 506.8804245 335.25168228 C506.8804245 334.59168228 506.8804245 333.93168228 506.8804245 333.25168228 C507.67964325 333.68480728 508.478862 334.11793228 509.3022995 334.56418228 C516.90026147 338.41667004 523.32442432 340.88198031 531.8804245 339.25168228 C538.47428222 336.65576155 543.26372193 331.79303078 546.1929245 325.37668228 C547.84116926 317.88466065 547.10785717 313.74867765 543.26714325 307.23215103 C541.97483168 305.22246316 541.97483168 305.22246316 540.2554245 303.81418228 C538.34021556 301.63780848 538.37839632 299.92044838 538.1929245 297.06418228 C538.12718231 296.16312759 538.06144012 295.26207291 537.99370575 294.33371353 C537.95632294 293.64664322 537.91894012 292.95957291 537.8804245 292.25168228 C538.9322995 292.14855728 539.9841745 292.04543228 541.0679245 291.93918228 C546.40421852 290.97689975 548.82837304 289.62519391 552.1304245 285.31418228 C554.23642289 281.62868509 555.09668585 279.66721109 554.450737 275.43918228 C553.92120692 271.64886169 553.92842436 268.97653871 554.8804245 265.25168228 C558.22659141 260.86129232 563.13630202 257.87718923 567.64702606 254.80051041 C571.43480645 252.17374185 575.04931955 249.32314256 578.6929245 246.50168228 C580.12037773 245.40931724 581.54873647 244.31813425 582.97808075 243.22824478 C583.64597626 242.7180983 584.31387177 242.20795181 585.00200653 241.68234634 C586.66441177 240.41620458 588.33254633 239.15759299 590.00151825 237.90011978 C595.74062549 233.48279802 600.52274758 229.32471304 602.8804245 222.25168228 C603.88102759 214.46127252 602.2318602 208.73361306 597.8804245 202.25168228 C593.5580942 196.89762033 588.74358458 192.11484236 583.8804245 187.25168228 C605.9904245 187.25168228 628.1004245 187.25168228 650.8804245 187.25168228 C650.96786415 162.43529031 650.96786415 162.43529031 651.02690887 137.61886978 C651.04469227 127.49512535 651.06556976 117.37145597 651.10674286 107.24777603 C651.13671801 99.87392139 651.15601672 92.50012779 651.16268998 85.12621391 C651.16658855 81.2246017 651.17570082 77.32316404 651.19761467 73.42160797 C651.21810834 69.74279507 651.22423255 66.06422719 651.21974754 62.38536263 C651.22095521 60.4048524 651.23702951 58.42436832 651.253685 56.44392776 C651.21001159 43.73432679 648.31133648 33.88242725 639.5679245 24.50168228 C633.73513569 18.91139454 627.01756657 16.12452594 618.97693634 16.13142776 C617.74434586 16.1300531 616.51175537 16.12867844 615.24181366 16.12726212 C613.87371039 16.13080125 612.50560737 16.13443606 611.13750458 16.13815689 C609.69865674 16.13843893 608.25980875 16.13828071 606.820961 16.13771439 C602.91215983 16.13742705 599.00338924 16.14331355 595.09459519 16.15028834 C591.01064855 16.15653242 586.92670123 16.15712652 582.84275055 16.15831375 C575.10799643 16.16142395 567.37325641 16.16963316 559.6385085 16.17966324 C550.83328796 16.19083403 542.02806676 16.19633727 533.22284091 16.20135868 C515.1086941 16.21181602 496.99456043 16.22940945 478.8804245 16.25168228 Z " fill="#313536" transform="translate(205.11957550048828,152.74831771850586)"/>
<path d="M0 0 C2.4375 0.375 2.4375 0.375 5.4375 2.375 C5.84155273 4.3449707 5.84155273 4.3449707 5.87109375 6.80078125 C5.88245361 7.72777832 5.89381348 8.65477539 5.90551758 9.60986328 C5.89544678 10.6254834 5.88537598 11.64110352 5.875 12.6875 C5.86472778 14.27667236 5.86472778 14.27667236 5.85424805 15.89794922 C5.41653865 38.48506568 1.58993273 61.91770182 -5.5625 83.375 C11.9275 83.375 29.4175 83.375 47.4375 83.375 C47.4375 140.135 47.4375 196.895 47.4375 255.375 C-9.3225 255.375 -66.0825 255.375 -124.5625 255.375 C-124.5625 312.135 -124.5625 368.895 -124.5625 427.375 C-181.3225 427.375 -238.0825 427.375 -296.5625 427.375 C-297.0575 379.855 -297.0575 379.855 -297.5625 331.375 C-290.9625 329.065 -284.3625 326.755 -277.5625 324.375 C-272.42866532 322.45651997 -267.30053749 320.53612497 -262.18652344 318.56738281 C-260.03456151 317.7392485 -257.88069512 316.91621937 -255.7265625 316.09375 C-249.37135366 313.66156313 -243.02843428 311.19657923 -236.71875 308.6484375 C-235.78869141 308.27380371 -234.85863281 307.89916992 -233.90039062 307.51318359 C-230.69928053 305.95474842 -228.90907411 304.01489588 -226.5625 301.375 C-224.04717883 300.31406194 -222.98130901 300.20988022 -220.41870117 301.22021484 C-219.27365112 301.89624756 -219.27365112 301.89624756 -218.10546875 302.5859375 C-216.81793701 303.33447998 -216.81793701 303.33447998 -215.50439453 304.09814453 C-214.14096924 304.91581299 -214.14096924 304.91581299 -212.75 305.75 C-211.81526855 306.29640137 -210.88053711 306.84280273 -209.91748047 307.40576172 C-205.61456677 309.9297349 -201.34192335 312.50078491 -197.08984375 315.109375 C-196.09078003 315.71966553 -196.09078003 315.71966553 -195.0715332 316.34228516 C-193.85752811 317.08827611 -192.64856507 317.84256708 -191.44604492 318.60693359 C-184.58652422 322.85383296 -177.52399056 324.38578485 -169.5625 323.375 C-162.75229684 321.18007389 -157.97009706 316.92591223 -154.3125 310.8125 C-150.18282998 302.70064818 -151.08183251 294.90229451 -153.5625 286.375 C-153.04300781 286.04628906 -152.52351562 285.71757813 -151.98828125 285.37890625 C-145.19465198 280.7451739 -142.2820236 275.63286797 -139.25 268.125 C-136.82050675 254.87321866 -139.8526693 243.1151414 -144.79296875 230.84765625 C-145.6253935 228.17291072 -145.87013851 226.15794528 -145.5625 223.375 C-143.90034732 222.03604368 -142.23286393 220.70369858 -140.5625 219.375 C-137.09555555 214.62318157 -135.83184448 209.79041483 -136.01953125 203.9453125 C-136.84178551 200.05291465 -138.91141651 197.28113776 -141.34765625 194.1875 C-144.51262349 186.86024465 -140.78254959 176.65025568 -139.25 169.125 C-139.02634766 168.01890381 -138.80269531 166.91280762 -138.57226562 165.77319336 C-137.17349844 158.99106544 -135.6106014 152.35214783 -133.578125 145.73046875 C-132.82331405 143.23668951 -132.13130515 140.75981238 -131.484375 138.23828125 C-127.14710009 121.48558 -120.34574143 105.83267008 -113.2265625 90.09765625 C-111.9268759 87.2185396 -110.70410877 84.32127315 -109.5625 81.375 C-109.2325 82.035 -108.9025 82.695 -108.5625 83.375 C-80.3475 82.88 -80.3475 82.88 -51.5625 82.375 C-46.31783139 66.75670403 -46.31783139 66.75670403 -43.375 51 C-43.10056402 48.86578161 -42.81583928 46.73285431 -42.51953125 44.6015625 C-42.34901245 43.23378662 -42.34901245 43.23378662 -42.17504883 41.83837891 C-41.47422858 39.02001449 -40.56544653 37.46777419 -38.5625 35.375 C-35.44007843 34.91964685 -33.49413039 34.87813046 -30.6875 36.375 C-27.49501342 42.05053169 -30.12318639 50.86310461 -31.25 56.9375 C-31.51248535 58.37536865 -31.51248535 58.37536865 -31.78027344 59.84228516 C-33.34694109 68.01602502 -35.69442915 75.56747379 -38.5625 83.375 C-31.9625 83.375 -25.3625 83.375 -18.5625 83.375 C-18.2325 81.065 -17.9025 78.755 -17.5625 76.375 C-17.15903835 74.60063127 -16.72520508 72.83282896 -16.2578125 71.07421875 C-16.00547852 70.10726074 -15.75314453 69.14030273 -15.49316406 68.14404297 C-15.22729492 67.12713379 -14.96142578 66.11022461 -14.6875 65.0625 C-11.45178527 52.27546325 -8.83207839 39.92552018 -8.08203125 26.734375 C-8.04260406 26.05907745 -8.00317688 25.38377991 -7.96255493 24.6880188 C-7.76797474 21.28520886 -7.59937143 17.88401116 -7.47167969 14.47802734 C-7.41012695 13.22973145 -7.34857422 11.98143555 -7.28515625 10.6953125 C-7.24140869 9.57398926 -7.19766113 8.45266602 -7.15258789 7.29736328 C-6.2907094 3.02897871 -4.38702536 0.64200371 0 0 Z " fill="#888888" transform="translate(808.5625,428.625)"/>
<path d="M0 0 C56.43 0 112.86 0 171 0 C171 113.52 171 227.04 171 344 C197.4 344 223.8 344 251 344 C249.06142021 347.87715958 246.85988187 350.58138708 243.9375 353.6875 C243.4209082 354.24131348 242.90431641 354.79512695 242.37207031 355.36572266 C237.74744952 360.2832631 233.01210054 365.09091328 228.25 369.875 C227.55382568 370.57584717 226.85765137 371.27669434 226.14038086 371.9987793 C222.0775744 376.04908038 217.9067043 379.91507154 213.55761719 383.65673828 C212.68199569 384.41185889 211.81759407 385.18240593 211 386 C209.33248354 385.96724521 207.66564025 385.8980954 206 385.8125 C200.22365659 385.79751597 195.73637481 386.56038023 191 390 C186.57676257 394.82365682 184.27768482 399.47440682 184 406 C180.0110077 407.42374411 176.065786 408.46470762 171.93457031 409.34423828 C165.18039982 410.79199186 159.14641271 412.42450793 153.078125 415.8515625 C150.7846768 417.1189944 148.44636757 418.06764313 146 419 C138.93028993 408.74048582 132.47597043 398.23053221 126.34814453 387.38330078 C125.05240409 385.09264194 123.74391121 382.80968585 122.43359375 380.52734375 C113.91298352 365.56945475 106.24809341 350.05014821 100 334 C99.54778076 332.83984375 99.54778076 332.83984375 99.08642578 331.65625 C88 303.12555349 88 303.12555349 88 297 C88.58007812 296.75765625 89.16015625 296.5153125 89.7578125 296.265625 C98.43774925 292.54155973 104.20366117 289.15194543 108.25 280.25 C109.91085197 273.05297481 109.67753003 266.69862105 106.32421875 260.0390625 C102.39129459 253.98305539 96.84737979 250.86624665 90 249 C88.33640899 248.6516412 86.67023344 248.31497482 85 248 C84.85304688 247.38253906 84.70609375 246.76507813 84.5546875 246.12890625 C83.27240449 241.28718247 81.94884162 237.68710969 78.8125 233.75 C76.30959763 230.13669534 75.65752785 227.82843713 75.76171875 223.44921875 C75.78838623 222.21187988 75.81505371 220.97454102 75.8425293 219.69970703 C75.89497163 218.13313642 75.94746768 216.5665676 76 215 C76.054699 212.93994818 76.1091199 210.87988896 76.16333008 208.81982422 C76.33407421 202.8203367 76.57468501 196.82572534 76.84228516 190.82983398 C76.94792889 188.3063224 77.038612 185.78214256 77.11474609 183.25756836 C77.22757601 179.57679005 77.38987178 175.90105595 77.5625 172.22265625 C77.58683105 171.09964615 77.61116211 169.97663605 77.63623047 168.81959534 C78.06864871 161.14384188 78.06864871 161.14384188 80.80982971 157.7772522 C82.80135673 156.04607908 84.85961085 154.53799138 87 153 C88.84655202 150.58928119 88.84655202 150.58928119 89.9375 148.25 C90.31777344 147.51265625 90.69804687 146.7753125 91.08984375 146.015625 C94.01941125 139.52782744 94.1735281 131.97573771 92.1640625 125.16796875 C88.84296696 117.91282379 83.61847107 112.39180327 76.3125 109.0625 C68.84035263 106.72837145 60.69793672 106.80150856 53.5625 110.0625 C46.10322874 114.36639071 42.49928472 120.32849119 39 128 C38.02933594 127.67257812 37.05867188 127.34515625 36.05859375 127.0078125 C31.6989074 125.76218783 27.56624028 125.7746596 23.0625 125.875 C22.28326172 125.88402344 21.50402344 125.89304687 20.70117188 125.90234375 C18.80064553 125.92566309 16.90027992 125.96152414 15 126 C14.76925781 125.20335937 14.53851563 124.40671875 14.30078125 123.5859375 C11.63352243 114.89042247 11.63352243 114.89042247 6 108 C4.21441547 107.08061419 4.21441547 107.08061419 2.33203125 106.34765625 C1.23246094 105.90292969 0.13289063 105.45820313 -1 105 C-1.0231206 91.45735822 -1.04091364 77.9147211 -1.05181217 64.37206364 C-1.05704162 58.08437976 -1.06414039 51.79670934 -1.07543945 45.5090332 C-1.08626614 39.44662277 -1.09227637 33.38422531 -1.09487724 27.32180595 C-1.09673189 25.00323723 -1.10035325 22.68466926 -1.10573006 20.36610603 C-1.11293758 17.13085492 -1.11399106 13.89565817 -1.11352539 10.66040039 C-1.11712067 9.69151886 -1.12071594 8.72263733 -1.12442017 7.72439575 C-1.1230455 6.84794907 -1.12167084 5.97150238 -1.12025452 5.0684967 C-1.12117631 4.30248673 -1.1220981 3.53647676 -1.12304783 2.74725437 C-1 1 -1 1 0 0 Z " fill="#888888" transform="translate(341,168)"/>
<path d="M0 0 C56.43 0 112.86 0 171 0 C171 56.43 171 112.86 171 171 C147.4875 171.12375 123.975 171.2475 99.75 171.375 C88.63715332 171.45693604 88.63715332 171.45693604 77.29980469 171.54052734 C68.21337891 171.56762695 68.21337891 171.56762695 63.95196533 171.57266235 C60.99221496 171.57822507 58.03311826 171.60059778 55.07354736 171.63345337 C51.28558781 171.67494119 47.49856386 171.68688718 43.7103982 171.67843366 C41.68143408 171.68102418 39.65257085 171.71303412 37.62388229 171.74657249 C26.51617274 171.67166818 18.43622806 168.17503222 10 161 C8.0859375 158.73828125 8.0859375 158.73828125 6.375 156.3125 C5.80523437 155.52488281 5.23546875 154.73726562 4.6484375 153.92578125 C-0.12517652 145.45318196 -0.4203722 137.53789896 -0.34057617 127.94311523 C-0.33965562 126.52027187 -0.34006028 125.09742714 -0.34167194 123.67458439 C-0.34234516 119.88762562 -0.325044 116.10095516 -0.30384064 112.31406403 C-0.28666935 108.75172586 -0.28594662 105.18945542 -0.28381348 101.6270752 C-0.26811404 91.23051241 -0.22623025 80.83400249 -0.1875 70.4375 C-0.125625 47.193125 -0.06375 23.94875 0 0 Z " fill="#888989" transform="translate(169,684)"/>
<path d="M0 0 C36.25034022 -0.16121214 36.25034022 -0.16121214 51.45898438 -0.1953125 C61.95377433 -0.21903278 72.44843569 -0.24689478 82.94311523 -0.30175781 C90.5868752 -0.34169795 98.23053067 -0.36744995 105.87439209 -0.37635398 C109.91966794 -0.38155662 113.96464493 -0.39373512 118.00982475 -0.42292023 C121.82246713 -0.45020306 125.63468939 -0.45841927 129.44742012 -0.45243073 C130.84175021 -0.45352525 132.23609531 -0.46140254 133.63034058 -0.4768219 C145.19569985 -0.59838187 152.79980864 1.32459761 161.28515625 9.2890625 C167.46583158 15.45565884 171.71781681 23.82135054 172.12304783 32.69424057 C172.12212604 33.73033588 172.12120424 34.7664312 172.12025452 35.83392334 C172.12231651 37.62176491 172.12231651 37.62176491 172.12442017 39.44572449 C172.12082489 40.74979752 172.11722961 42.05387054 172.11352539 43.39746094 C172.11324326 44.78719582 172.11340176 46.17693085 172.1139679 47.56666565 C172.11425486 51.33698276 172.10837442 55.10726806 172.10139394 58.87757778 C172.09514362 62.81871314 172.09455527 66.75984922 172.09336853 70.70098877 C172.09026017 78.1630069 172.08205344 85.62501039 172.07201904 93.08702207 C172.06084254 101.582719 172.05534358 110.07841663 172.05032361 118.57411909 C172.03987043 136.0494212 172.02228056 153.52470905 172 171 C163.23822201 171.27010633 154.47634973 171.50703981 145.71257591 171.70202446 C141.64285948 171.79360606 137.57408917 171.8964603 133.50537109 172.02539062 C129.57644461 172.1494712 125.64782563 172.24352923 121.71763992 172.31708145 C120.2207156 172.35031798 118.72398811 172.39424582 117.22770309 172.44918442 C105.58866791 172.86626721 105.58866791 172.86626721 101.70877075 170.75064087 C100.02929688 169.17773438 100.02929688 169.17773438 98 166 C98.0703125 162.7890625 98.0703125 162.7890625 99.125 159.625 C99.45757813 158.56539062 99.79015625 157.50578125 100.1328125 156.4140625 C100.41898438 155.61742187 100.70515625 154.82078125 101 154 C102.0828125 154.7425 102.0828125 154.7425 103.1875 155.5 C108.28901494 158.04466974 114.48456287 157.85007344 120 157 C124.99319427 154.41346334 127.37910606 151.43458483 130.1875 146.625 C130.84105469 145.52414062 131.49460937 144.42328125 132.16796875 143.2890625 C135.96555636 136.47121865 138.11493111 131.85577897 137 124 C134.44273581 118.35270824 130.25350355 115.88177622 125 113 C126.08318137 110.75031562 127.20219032 108.69893911 128.59765625 106.62109375 C131.08604369 101.97009661 130.59337329 97.13093376 130 92 C127.38908136 85.59138152 121.79755162 83.18457061 116 80 C114.65808594 79.15308594 114.65808594 79.15308594 113.2890625 78.2890625 C106.84375561 74.35539382 101.55579173 72.62182359 94 74 C88.93516641 76.25103715 86.72446488 79.52011205 84.078125 84.1953125 C83 86 83 86 81 88 C79.329375 87.01 79.329375 87.01 77.625 86 C72.733018 83.57135645 68.3778675 83.14752185 63 84 C54.71126141 87.57553429 49.60841484 97.68404415 45.8828125 105.5546875 C44.21301757 110.17987169 44.11375147 114.26418932 45.62890625 118.94140625 C48.08013108 124.03072058 52.12020772 126.42981814 57 129 C55.30841284 132.03158954 53.56579608 134.64180982 51 137 C47.78747181 137.74184888 45.12143944 136.90503274 42 136 C40.90171875 135.68546875 39.8034375 135.3709375 38.671875 135.046875 C36.41307528 134.36822217 34.16104737 133.66643355 31.91796875 132.9375 C26.9682358 131.34722435 22.52155662 130.73220229 17.3125 130.625 C16.64283203 130.58761719 15.97316406 130.55023438 15.28320312 130.51171875 C8.43621741 130.39400553 6.81737453 132.21256971 0 136 C0 91.12 0 46.24 0 0 Z " fill="#888888" transform="translate(684,169)"/>
<path d="M0 0 C30.36 0 60.72 0 92 0 C92 56.76 92 113.52 92 172 C118.4 172 144.8 172 172 172 C170.06142021 175.87715958 167.85988187 178.58138708 164.9375 181.6875 C164.4209082 182.24131348 163.90431641 182.79512695 163.37207031 183.36572266 C158.74744952 188.2832631 154.01210054 193.09091328 149.25 197.875 C148.55382568 198.57584717 147.85765137 199.27669434 147.14038086 199.9987793 C143.0775744 204.04908038 138.9067043 207.91507154 134.55761719 211.65673828 C133.68199569 212.41185889 132.81759407 213.18240593 132 214 C130.33248354 213.96724521 128.66564025 213.8980954 127 213.8125 C121.22365659 213.79751597 116.73637481 214.56038023 112 218 C107.57676257 222.82365682 105.27768482 227.47440682 105 234 C101.0110077 235.42374411 97.065786 236.46470762 92.93457031 237.34423828 C86.18039982 238.79199186 80.14641271 240.42450793 74.078125 243.8515625 C71.7846768 245.1189944 69.44636757 246.06764313 67 247 C59.93028993 236.74048582 53.47597043 226.23053221 47.34814453 215.38330078 C46.05240409 213.09264194 44.74391121 210.80968585 43.43359375 208.52734375 C34.91298352 193.56945475 27.24809341 178.05014821 21 162 C20.69852051 161.2265625 20.39704102 160.453125 20.08642578 159.65625 C9 131.12555349 9 131.12555349 9 125 C9.58007812 124.75765625 10.16015625 124.5153125 10.7578125 124.265625 C19.43774925 120.54155973 25.20366117 117.15194543 29.25 108.25 C30.91085197 101.05297481 30.67753003 94.69862105 27.32421875 88.0390625 C23.39129459 81.98305539 17.84737979 78.86624665 11 77 C9.33640899 76.6516412 7.67023344 76.31497482 6 76 C5.85304688 75.38253906 5.70609375 74.76507813 5.5546875 74.12890625 C4.27240449 69.28718247 2.94884162 65.68710969 -0.1875 61.75 C-2.83223352 57.99044414 -3.33790424 55.49935802 -3.234375 50.92578125 C-3.20883545 49.68876465 -3.1832959 48.45174805 -3.15698242 47.17724609 C-3.10774319 45.7847181 -3.05525827 44.39230214 -3 43 C-2.97120758 42.25252502 -2.94241516 41.50505005 -2.91275024 40.73492432 C-2.71392281 35.81546018 -2.46829906 30.8993058 -2.20043945 25.9831543 C-2.06102364 23.41025389 -1.92960227 20.83702451 -1.79882812 18.26367188 C-1.71140947 16.61195412 -1.62353577 14.96026037 -1.53515625 13.30859375 C-1.49656998 12.54711533 -1.4579837 11.7856369 -1.41822815 11.00108337 C-1.20587116 7.2007842 -0.75089801 3.75449004 0 0 Z " fill="#313536" transform="translate(420,340)"/>
<path d="M0 0 C18.81 0 37.62 0 57 0 C55.35 3.63 53.7 7.26 52 11 C51.17718514 20.25666715 52.18992913 27.8400344 58.0625 35.25 C62.67200012 40.08129615 68.13249769 43.82118549 74.95703125 44.13671875 C76.46330078 44.13091797 76.46330078 44.13091797 78 44.125 C81.93450822 44.30154845 83.58208416 44.66844538 86.703125 47.14453125 C89.30194163 49.99446053 91.67223653 52.92544552 94 56 C95.28969769 57.60575009 96.58127901 59.20998964 97.875 60.8125 C98.51308594 61.62460937 99.15117187 62.43671875 99.80859375 63.2734375 C102.44807671 66.55750008 105.18483754 69.74823505 107.9375 72.9375 C112.37177902 78.07598559 116.7296043 83.26191267 120.9609375 88.5703125 C122.91681482 90.99503304 122.91681482 90.99503304 125.0390625 92.9296875 C130.4919316 98.1581587 130.98038966 103.2752029 131.57421875 110.515625 C131.96116148 113.6821655 132.4017089 115.20001961 134.0625 117.8125 C135 121 135 121 133.66796875 123.52734375 C132.41043669 125.31247581 131.09974582 127.06155755 129.734375 128.765625 C125.38193312 134.3728249 126.28951798 142.2676655 127 149 C129.56447574 155.81336727 134.55095797 159.91986053 141 163 C148.73835097 165.57945032 157.29580612 164.0544517 165 162 C168 168.625 168 168.625 168 172 C112.56 172 57.12 172 0 172 C0 115.24 0 58.48 0 0 Z " fill="#888888" transform="translate(168,340)"/>
<path d="M0 0 C1.08325385 2.52967952 1.87690915 4.86831824 2.625 7.5 C13.67000848 43.2297836 30.60687077 78.63279033 51 110 C51.46438477 110.72123047 51.92876953 111.44246094 52.40722656 112.18554688 C58.75124365 122.00826433 65.45026513 131.5111578 72.54418945 140.80834961 C73.11097412 141.55995361 73.67775879 142.31155762 74.26171875 143.0859375 C74.76662842 143.7464209 75.27153809 144.4069043 75.79174805 145.08740234 C77.04352945 147.06890477 77.57082859 148.70917411 78 151 C68.50702974 155.12139667 58.84081332 158.68923666 49.115448 162.21624756 C45.46156594 163.54145696 41.80996036 164.87288657 38.15821838 166.20397949 C36.32990615 166.87037225 34.50148685 167.53647133 32.67295837 168.20227051 C14.76905467 174.72271873 -3.08129898 181.38796009 -20.91796875 188.08984375 C-22.21420166 188.57493408 -22.21420166 188.57493408 -23.53662109 189.06982422 C-25.14228592 189.6761258 -26.74441541 190.29190023 -28.34228516 190.91845703 C-31.37385497 192.09866544 -33.71534374 193 -37 193 C-37.03963867 192.20343994 -37.07927734 191.40687988 -37.12011719 190.58618164 C-39.96611157 135.42342031 -47.88392622 79.43951041 -70.05786133 28.38525391 C-71 26 -71 26 -71 24 C-69.82308594 23.56244385 -68.64617187 23.1248877 -67.43359375 22.67407227 C-63.93027606 21.37156162 -60.42714724 20.06854412 -56.92407227 18.76538086 C-52.96947702 17.2943979 -49.01415989 15.8253781 -45.05834961 14.35766602 C-32.4774441 9.6873652 -32.4774441 9.6873652 -19.94140625 4.8984375 C-18.83474609 4.47232178 -17.72808594 4.04620605 -16.58789062 3.60717773 C-14.62337337 2.84765529 -12.66219308 2.07942338 -10.70507812 1.30102539 C-9.42987305 0.80977173 -9.42987305 0.80977173 -8.12890625 0.30859375 C-7.41806885 0.02814209 -6.70723145 -0.25230957 -5.97485352 -0.54125977 C-3.57906917 -1.09777835 -2.25996272 -0.96398089 0 0 Z " fill="#303536" transform="translate(416,471)"/>
<path d="M0 0 C2.78005834 2.25410136 3.82497181 4.03660956 4.46484375 7.55859375 C4.72197293 10.04182762 4.90313654 12.50576581 5 15 C5.63421875 15.23332031 6.2684375 15.46664062 6.921875 15.70703125 C35.23675546 27.60071835 35.23675546 27.60071835 42 40 C43.65876159 44.97628476 43.51930378 49.31226272 42 54.25 C38.02226348 59.71938772 30.6269535 61.65951935 24.41796875 63.890625 C23.70300232 64.15209824 22.98803589 64.41357147 22.25140381 64.68296814 C20.70674739 65.24733957 19.16132206 65.80961019 17.61520386 66.3699646 C14.26264354 67.58525771 10.91407265 68.81137581 7.56520081 70.03678894 C5.78791121 70.68704837 4.01043194 71.33678961 2.23277283 71.98603821 C-7.88008673 75.68102452 -17.97227166 79.43123866 -28.0625 83.1875 C-28.97529724 83.52701691 -29.88809448 83.86653381 -30.82855225 84.21633911 C-41.88237411 88.32846868 -52.92003226 92.47897387 -63.9375 96.6875 C-76.35004784 101.42883897 -88.8391224 105.94424879 -101.3503418 110.41748047 C-109.88751777 113.47562134 -118.40818421 116.555801 -126.72924805 120.17285156 C-131.41097745 122.11220059 -135.01407835 122.39949632 -140 122 C-144.57821701 119.0630306 -147.33329355 116.18530894 -149 111 C-151.01858282 99.64762824 -146.45109778 90.48854542 -141.99804688 80.31103516 C-138.29891788 71.96811715 -138.29891788 71.96811715 -139 63 C-139.515625 62.319375 -140.03125 61.63875 -140.5625 60.9375 C-142 59 -142 59 -142.5 56 C-142 53 -142 53 -139.89257812 50.97729492 C-136.72665992 48.81315148 -133.83973937 47.62159945 -130.21875 46.36328125 C-129.21594749 46.00894264 -129.21594749 46.00894264 -128.19288635 45.64744568 C-126.73509336 45.1330032 -125.27580176 44.62279219 -123.81521606 44.11633301 C-119.75282866 42.70588966 -115.70323898 41.25945636 -111.65234375 39.81640625 C-110.79047958 39.51012299 -109.92861542 39.20383972 -109.04063416 38.88827515 C-98.99810684 35.30778992 -89.0299114 31.53353915 -79.0625 27.75 C-77.18490213 27.03806932 -75.30729794 26.32615534 -73.4296875 25.61425781 C-70.56930623 24.52935122 -67.70907261 23.44406006 -64.84915161 22.35794067 C-57.67217966 19.63243094 -50.49132791 16.91731659 -43.30859375 14.20703125 C-42.27170914 13.81573029 -41.23482452 13.42442932 -40.16651917 13.02127075 C-36.12273287 11.49531141 -32.07889152 9.96949814 -28.03494263 8.44396973 C-25.27311639 7.40192122 -22.51153058 6.35923799 -19.75 5.31640625 C-18.93442123 5.00886917 -18.11884247 4.70133209 -17.27854919 4.38447571 C-16.52147171 4.09848007 -15.76439423 3.81248444 -14.984375 3.51782227 C-14.28755615 3.25462189 -13.5907373 2.99142151 -12.87280273 2.72024536 C-11.2874025 2.1105297 -9.71438631 1.46876103 -8.14453125 0.82006836 C-5.19449875 -0.30802353 -3.127233 -0.46575811 0 0 Z " fill="#313536" transform="translate(513,630)"/>
<path d="M0 0 C4.40617281 2.16303029 7.1644597 4.41114924 9 9 C9.67824925 13.52166168 9.48368868 16.94850286 7.5625 21.125 C4.64508621 24.39819596 1.48899352 26.84989823 -2.07421875 29.38671875 C-4.27160732 30.9412348 -4.27160732 30.9412348 -5 34 C-5.11462391 35.45160716 -5.17819009 36.90752385 -5.2109375 38.36328125 C-5.23712158 39.29132568 -5.26330566 40.21937012 -5.2902832 41.17553711 C-5.33221802 42.72833374 -5.33221802 42.72833374 -5.375 44.3125 C-5.80016971 56.64424255 -6.4070151 68.96611426 -7.13140869 81.28378296 C-7.25216564 83.38677319 -7.36605504 85.49016899 -7.4730835 87.59390259 C-7.62661948 90.58349946 -7.80451022 93.57072288 -7.98828125 96.55859375 C-8.05099464 97.92106735 -8.05099464 97.92106735 -8.11497498 99.31106567 C-8.52790617 105.42618225 -8.52790617 105.42618225 -10.55566406 107.89086914 C-14.03058672 109.46763439 -17.5377076 110.88198227 -21.12109375 112.1875 C-22.32699158 112.63604088 -22.32699158 112.63604088 -23.55725098 113.09364319 C-26.18180402 114.06847583 -28.80960702 115.03421148 -31.4375 116 C-33.2542549 116.67302571 -35.07074086 117.34677784 -36.88696289 118.02124023 C-39.63353441 119.04111512 -42.38026149 120.06054113 -45.12791443 121.07749939 C-53.08362467 124.02295955 -61.01241483 127.03585849 -68.9375 130.0625 C-84.45797321 135.95712486 -84.45797321 135.95712486 -92 138.6875 C-92.65863037 138.93185791 -93.31726074 139.17621582 -93.99584961 139.42797852 C-97.4250745 140.64786271 -100.36100152 141.49737176 -104 141 C-109.6449493 137.40775954 -113.75100265 130.58428784 -117.80664062 125.33422852 C-121.28870914 120.84171707 -124.97488187 116.60942579 -128.8203125 112.421875 C-133.54882144 107.16797618 -137.93293929 101.60992514 -142.3203125 96.0703125 C-144.50324465 93.33979737 -146.73235516 90.66036545 -149 88 C-149.53753906 87.33226562 -150.07507813 86.66453125 -150.62890625 85.9765625 C-153.45497507 82.95925594 -155.1302093 82.05601697 -159.3359375 81.78515625 C-161.80533243 81.84469093 -164.27429893 81.92645643 -166.7421875 82.03125 C-169.72395728 82.00264789 -171.2074512 81.92035704 -173.6875 80.375 C-177.34535222 76.61828691 -179.12778498 73.23518293 -179.4375 68 C-179.23268474 62.89912472 -176.70800014 59.83451867 -173.3125 56.1875 C-169.66747151 54.31572861 -166.0766155 53.88656374 -162 54 C-157.20513683 55.6284441 -154.83269033 57.86658452 -152 62 C-151.17070964 65.30502547 -150.68632765 68.57061264 -150.19921875 71.94140625 C-148.8340485 75.42325742 -147.44795517 76.46773232 -144.12866211 78.09936523 C-140.11154997 79.79900128 -136.05943489 81.32400025 -131.9375 82.75 C-131.06544922 83.06582031 -130.19339844 83.38164062 -129.29492188 83.70703125 C-124.78038018 85.28592471 -120.84690412 86.6196955 -116 86 C-114.515 85.01 -114.515 85.01 -113 84 C-112.72971626 80.28359861 -112.819067 77.542799 -114 74 C-116.82717924 73.14825949 -116.82717924 73.14825949 -120.1875 72.625 C-125.93285604 71.42175109 -129.07206997 70.35257111 -133 66 C-135.51414202 61.74529813 -135.80611378 57.83668267 -135 53 C-132.95737953 48.68689701 -130.49580529 45.75385811 -126 44 C-121.03648296 43.29560649 -117.08595884 43.46689293 -112.5625 45.6875 C-109.90770986 48.08328622 -108.53556855 49.78518396 -107 53 C-106.83849788 56.61516288 -107.06553522 60.11239481 -107.28515625 63.72265625 C-107.29243617 67.06834564 -107.29243617 67.06834564 -105.1484375 69.38671875 C-103.08809658 71.1235376 -103.08809658 71.1235376 -100.5625 71.75 C-97.07773977 70.73007018 -96.12384812 68.69337737 -94.390625 65.6328125 C-93.93171875 64.76398438 -93.4728125 63.89515625 -93 63 C-91.79227804 60.72884145 -90.58391438 58.45802406 -89.375 56.1875 C-88.52035156 54.53814453 -88.52035156 54.53814453 -87.6484375 52.85546875 C-85.02006587 48.30253116 -85.02006587 48.30253116 -83 47 C-76.09173839 46.05180723 -71.73107406 48.88429517 -65.9609375 52.15625 C-61.47557758 54.58076888 -58.23910217 55.62869226 -53 55 C-50.72517509 53.13124322 -50.72517509 53.13124322 -50.62890625 50.171875 C-51.085479 46.26937952 -52.21684696 45.02324915 -54.9375 42.25 C-59.03919985 37.99638534 -60.32142484 36.14443591 -60.2109375 30.0234375 C-59.75834108 25.68186447 -57.30723238 23.34563643 -54.5 20.1875 C-50.85632503 17.33434803 -47.20752889 17.24292852 -42.69921875 17.43359375 C-38.39416943 18.33696879 -35.75309546 20.65819231 -33 24 C-31.26104652 27.47790695 -31.5394586 31.19742166 -32 35 C-33.26423017 38.27322959 -34.94196367 41.07741277 -37.6171875 43.41015625 C-39.45504347 45.52317145 -39.37168447 46.79904073 -39.3125 49.5625 C-39.30863281 50.34753906 -39.30476562 51.13257813 -39.30078125 51.94140625 C-39.17703023 54.22126834 -39.17703023 54.22126834 -37 56 C-33.60911604 56.69861706 -33.60911604 56.69861706 -30 56 C-28.03207236 53.81481315 -26.82519171 52.14077575 -25.4375 49.625 C-25.06181885 48.98812256 -24.6861377 48.35124512 -24.29907227 47.69506836 C-23.54131445 46.40796467 -22.79303899 45.11522803 -22.0546875 43.81689453 C-20.61358758 41.33433306 -19.01058221 38.96293441 -17.4375 36.5625 C-15.06491787 32.51787531 -14.10297756 29.75421894 -15 25 C-15.95164301 23.19025154 -17.01144519 21.48175286 -18.09765625 19.75 C-20.27408929 15.52903895 -19.19356253 11.63445496 -17.875 7.3125 C-13.73534316 -0.00089374 -7.88014874 -1.26851175 0 0 Z " fill="#313536" transform="translate(412,289)"/>
<path d="M0 0 C4.04452772 1.23973166 7.53236799 2.71459093 11.16796875 4.87109375 C12.13532959 5.44037598 13.10269043 6.0096582 14.09936523 6.59619141 C15.11844971 7.20382324 16.13753418 7.81145508 17.1875 8.4375 C19.32767759 9.70518273 21.46830908 10.97209944 23.609375 12.23828125 C24.67736328 12.87072754 25.74535156 13.50317383 26.84570312 14.15478516 C29.80022086 15.88313229 32.77435022 17.56674129 35.765625 19.23046875 C36.6419458 19.72168213 37.5182666 20.21289551 38.42114258 20.71899414 C40.06648195 21.63832173 41.71720398 22.54809821 43.3737793 23.44702148 C44.10508057 23.85895752 44.83638184 24.27089355 45.58984375 24.6953125 C46.54685181 25.2214917 46.54685181 25.2214917 47.52319336 25.75830078 C49.46215019 27.38857594 49.75699228 28.50266971 50 31 C48.88654588 33.31610761 47.72132338 35.38693773 46.375 37.5625 C24.65634342 74.58065627 12.04068321 115.08323525 4 157 C3.66833167 158.6669988 3.33557096 160.33378242 3 162 C-1.08284731 160.74209829 -4.67025487 159.23018536 -8.38671875 157.12890625 C-9.39710205 156.56059082 -10.40748535 155.99227539 -11.44848633 155.40673828 C-12.51736084 154.79813965 -13.58623535 154.18954102 -14.6875 153.5625 C-15.80600342 152.93069824 -16.92450684 152.29889648 -18.0769043 151.64794922 C-25.25219169 147.58662063 -32.40265978 143.48294247 -39.52832031 139.33520508 C-47.97449623 134.41958789 -56.46586886 129.58324022 -64.95629883 124.74462891 C-72.32967091 120.53895489 -79.67628 116.2915218 -87 112 C-84.14721268 106.05631026 -79.33698116 102.11160679 -74.375 97.875 C-65.54715858 90.22991792 -57.40577918 81.86868767 -50.15625 72.71484375 C-47.93626808 69.91975782 -45.63100615 67.21370606 -43.3125 64.5 C-27.33861146 45.32637292 -14.17412158 24.52322737 -2.04052734 2.77148438 C-1 1 -1 1 0 0 Z " fill="#FEFEFE" transform="translate(651,450)"/>
<path d="M0 0 C1.51384078 0.92739795 3.02958599 1.85169191 4.546875 2.7734375 C5.36865234 3.27456055 6.19042969 3.77568359 7.03710938 4.29199219 C11.87734826 7.18293811 16.81964964 9.89163481 21.75 12.625 C30.11823623 17.28310891 38.42889552 22.02523737 46.6875 26.875 C54.80167543 31.6393597 62.9659532 36.2984519 71.1875 40.875 C79.82517192 45.69238569 88.43591549 50.55278613 97 55.5 C98.52173828 56.37011719 98.52173828 56.37011719 100.07421875 57.2578125 C101.01523437 57.804375 101.95625 58.3509375 102.92578125 58.9140625 C104.1638855 59.62876709 104.1638855 59.62876709 105.42700195 60.35791016 C111.53507263 64.45722447 113.33968504 69.16566725 115.6875 75.875 C116.06390625 76.90496094 116.4403125 77.93492187 116.828125 78.99609375 C119.57299705 87.04707409 121.68748462 95.18993732 118.76953125 103.484375 C116.35117261 108.27413386 113.71576888 111.66256169 108.6875 113.875 C103.38920095 113.55177841 99.3687365 112.01643158 94.8125 109.4375 C93.84159424 108.90406982 93.84159424 108.90406982 92.85107422 108.35986328 C87.41597628 105.34875393 82.06800948 102.18751262 76.72900391 99.01000977 C70.2784688 95.18355522 63.73879608 91.52558345 57.1875 87.875 C55.04405892 86.67355507 52.90082648 85.47173782 50.7578125 84.26953125 C47.03522973 82.18192176 43.30204247 80.11694984 39.5546875 78.07421875 C26.41472332 70.79533552 26.41472332 70.79533552 22.40234375 64.078125 C16.78187067 56.85728942 7.74094579 53.10018556 -0.33007812 49.28320312 C-6.72017 45.99920557 -6.72017 45.99920557 -8.48461914 42.65039062 C-8.97928534 41.09066967 -9.42406127 39.51399812 -9.81079102 37.92407227 C-11.03621249 32.91922437 -15.07338558 29.6659241 -19.25 27 C-22.29747036 25.70103287 -22.29747036 25.70103287 -25.6875 25.75 C-33.38304036 23.89245577 -38.0359733 15.15614859 -42.3125 8.875 C-40.4087984 3.7801223 -36.57223167 2.50207359 -31.88671875 0.26953125 C-21.10404978 -3.9374773 -10.14165262 -6.4585861 0 0 Z " fill="#FEFEFD" transform="translate(538.3125,591.125)"/>
<path d="M0 0 C7.01317804 0.12850006 13.03905035 1.87125038 19.62109375 4.17578125 C21.37945557 4.78039185 21.37945557 4.78039185 23.17333984 5.3972168 C49.58930172 14.7991736 77.78782454 31.51962743 93.68359375 55.36328125 C93.92922224 58.4336374 93.91419658 59.63155514 92.68359375 62.36328125 C87.18365803 68.64392819 80.04428602 73.51461184 73.41015625 78.53125 C68.12247814 82.53269677 62.91086434 86.63274221 57.6875 90.7175293 C56.58341797 91.57858276 56.58341797 91.57858276 55.45703125 92.45703125 C54.80138184 92.96943359 54.14573242 93.48183594 53.47021484 94.00976562 C49.02967798 97.37384548 49.02967798 97.37384548 45.484375 97.265625 C40.97001718 96.19387098 37.76221612 94.37644447 33.87109375 91.92578125 C32.3632265 91.00706424 30.85406942 90.09046144 29.34375 89.17578125 C28.57305176 88.7065625 27.80235352 88.23734375 27.00830078 87.75390625 C23.32618486 85.55128786 19.57018586 83.48873673 15.80859375 81.42578125 C9.24589899 77.80929295 2.73089161 74.11773555 -3.75390625 70.36328125 C-4.56520996 69.89414307 -5.37651367 69.42500488 -6.21240234 68.94165039 C-9.30479014 67.14595327 -12.33947499 65.34790209 -15.31640625 63.36328125 C-16.65588439 55.03835259 -14.78649777 46.11881828 -13.64160156 37.83740234 C-13.26887207 35.00163604 -12.94322607 32.16226499 -12.62109375 29.3203125 C-12.49839111 28.26424805 -12.37568848 27.20818359 -12.24926758 26.12011719 C-12.00803457 24.03950233 -11.7731717 21.95813587 -11.5456543 19.87597656 C-9.19478506 0.10573965 -9.19478506 0.10573965 0 0 Z " fill="#FEFEFE" transform="translate(701.31640625,311.63671875)"/>
<path d="M0 0 C48.51 0.33 97.02 0.66 147 1 C145.06142021 4.87715958 142.85988187 7.58138708 139.9375 10.6875 C139.4209082 11.24131348 138.90431641 11.79512695 138.37207031 12.36572266 C133.74744952 17.2832631 129.01210054 22.09091328 124.25 26.875 C123.55382568 27.57584717 122.85765137 28.27669434 122.14038086 28.9987793 C118.0775744 33.04908038 113.9067043 36.91507154 109.55761719 40.65673828 C108.68199569 41.41185889 107.81759407 42.18240593 107 43 C105.33248354 42.96724521 103.66564025 42.8980954 102 42.8125 C96.22365659 42.79751597 91.73637481 43.56038023 87 47 C82.57676257 51.82365682 80.27768482 56.47440682 80 63 C76.0110077 64.42374411 72.065786 65.46470762 67.93457031 66.34423828 C61.18039982 67.79199186 55.14641271 69.42450793 49.078125 72.8515625 C46.7846768 74.1189944 44.44636757 75.06764313 42 76 C34.93028993 65.74048582 28.47597043 55.23053221 22.34814453 44.38330078 C21.05240409 42.09264194 19.74391121 39.80968585 18.43359375 37.52734375 C4.14764844 12.44294532 4.14764844 12.44294532 0 0 Z " fill="#878887" transform="translate(445,511)"/>
<path d="M0 0 C3.49228038 3.15968225 5.46786387 5.72273261 5.75390625 10.55078125 C5.49230359 15.26755655 4.56219498 18.15690472 1.39724731 21.83807373 C-2.30468958 25.04846317 -7.03907994 26.34944295 -11.59765625 27.9609375 C-13.95852843 28.83161806 -16.31936664 29.70239073 -18.68017578 30.57324219 C-19.94540718 31.03297898 -21.21081145 31.49224027 -22.47637939 31.9510498 C-26.42262809 33.38623822 -30.35127125 34.86579363 -34.27685547 36.35644531 C-34.94521927 36.61018134 -35.61358307 36.86391737 -36.30220032 37.12534237 C-37.67238874 37.64563118 -39.04254891 38.16599439 -40.41268158 38.68642998 C-43.94371106 40.02557029 -47.47794425 41.35618883 -51.01220703 42.68676758 C-51.72803955 42.95631036 -52.44387207 43.22585314 -53.18139648 43.50356388 C-54.64657044 44.05522096 -56.11176276 44.60682924 -57.57697296 45.15839005 C-59.84858651 46.0135855 -62.12007757 46.86910558 -64.39154053 47.72470093 C-88.23234233 56.70424386 -112.09107068 65.63416863 -135.97924805 74.48699951 C-142.62601207 76.95066429 -149.27162059 79.41744433 -155.91717529 81.8843689 C-158.17321679 82.72150839 -160.42959427 83.55773656 -162.68603516 84.39379883 C-164.03809419 84.89532282 -165.39014544 85.39686777 -166.7421875 85.8984375 C-167.90862793 86.33075684 -169.07506836 86.76307617 -170.27685547 87.20849609 C-172.24005772 87.947675 -174.19449989 88.7109319 -176.13549805 89.5065918 C-180.15838034 91.06653863 -184.14432052 91.03837054 -188.375 90.375 C-191.79099805 88.68446518 -193.83735487 86.30365977 -195.75 83 C-196.91701026 78.09855691 -197.08068411 74.70795887 -194.6875 70.1875 C-190.43660649 65.01749439 -186.00560266 62.56697548 -179.75 60.421875 C-178.64679413 60.02987663 -178.64679413 60.02987663 -177.52130127 59.62995911 C-175.14216304 58.78630627 -172.75863726 57.95584515 -170.375 57.125 C-167.91219349 56.25410364 -165.45071066 55.37953951 -162.98931885 54.50465393 C-161.36546988 53.92761072 -159.74124437 53.35162603 -158.11663818 52.77671814 C-151.91984805 50.58133853 -145.75950116 48.30178972 -139.625 45.9375 C-138.79935547 45.61982666 -137.97371094 45.30215332 -137.12304688 44.97485352 C-135.57723122 44.37937322 -134.03164293 43.78330226 -132.48632812 43.18652344 C-128.67466194 41.7214473 -124.84747998 40.29828284 -121.02148438 38.87109375 C-116.55405567 37.20077916 -112.09595098 35.50703933 -107.640625 33.8046875 C-85.43968593 25.32996228 -85.43968593 25.32996228 -75.375 21.875 C-67.86308 19.29474356 -60.42597768 16.54026864 -53.00280762 13.7147522 C-51.13553502 13.00400996 -49.26747638 12.29533393 -47.39941406 11.58666992 C-41.4193806 9.31367509 -35.45080323 7.01647216 -29.5 4.66796875 C-27.88399902 4.03930908 -27.88399902 4.03930908 -26.23535156 3.39794922 C-24.22721023 2.61644492 -22.2235411 1.82330332 -20.22558594 1.01611328 C-13.26039916 -1.67492521 -6.96960043 -3.35573354 0 0 Z " fill="#303435" transform="translate(569.375,700.625)"/>
<path d="M0 0 C2 1.6875 2 1.6875 3 4 C3 7.32535714 2.21646066 8.73303185 0.125 11.3125 C-2.42403805 13.67163837 -5.2315183 15.61921065 -8.0625 17.625 C-13.52015552 21.51597004 -18.35532102 25.83850928 -23.23046875 30.4140625 C-25.44654871 32.4832373 -27.68969612 34.47637248 -30 36.4375 C-39.23894852 44.48556535 -47.50887571 53.31147925 -55 63 C-55.4640625 63.59296875 -55.928125 64.1859375 -56.40625 64.796875 C-63.69594143 74.13679214 -70.19072029 83.67666024 -76 94 C-76.50974365 94.88606934 -76.50974365 94.88606934 -77.02978516 95.79003906 C-90.47610702 119.23589727 -98.43276257 145.46855802 -103 172 C-103.30357422 173.71509766 -103.30357422 173.71509766 -103.61328125 175.46484375 C-104.40663633 180.26736727 -105.01842365 185.06651996 -105.4921875 189.91015625 C-105.57710449 190.77116943 -105.66202148 191.63218262 -105.74951172 192.51928711 C-105.91360826 194.22630699 -106.06920279 195.93417051 -106.21533203 197.64282227 C-106.28864746 198.42326904 -106.36196289 199.20371582 -106.4375 200.0078125 C-106.49808594 200.70535645 -106.55867187 201.40290039 -106.62109375 202.12158203 C-107 204 -107 204 -109 207 C-112.5 207.3125 -112.5 207.3125 -116 207 C-118.4869812 204.5130188 -118.28232709 202.99672683 -118.32983398 199.59619141 C-118.12688588 172.85849323 -112.5569873 145.96970092 -103 121 C-102.73670898 120.30777344 -102.47341797 119.61554688 -102.20214844 118.90234375 C-94.81876998 99.7571685 -84.93610872 81.68376294 -73 65 C-72.23945312 63.93394531 -71.47890625 62.86789062 -70.6953125 61.76953125 C-66.45994599 55.98803614 -61.97043238 50.56508037 -57.11328125 45.296875 C-55.21503568 43.23371716 -53.38289387 41.13160875 -51.5625 39 C-42.60489953 28.73608279 -32.45570653 19.96826679 -21.9375 11.375 C-20.92792236 10.54875122 -20.92792236 10.54875122 -19.89794922 9.70581055 C-6.54526209 -1.13283382 -6.54526209 -1.13283382 0 0 Z " fill="#BCBCB9" transform="translate(654,284)"/>
<path d="M0 0 C2.4375 0.375 2.4375 0.375 5.4375 2.375 C5.84155273 4.3449707 5.84155273 4.3449707 5.87109375 6.80078125 C5.88245361 7.72777832 5.89381348 8.65477539 5.90551758 9.60986328 C5.89544678 10.6254834 5.88537598 11.64110352 5.875 12.6875 C5.86815186 13.74694824 5.86130371 14.80639648 5.85424805 15.89794922 C5.59632886 29.20735207 3.69641017 42.27521924 1.4375 55.375 C1.2715332 56.34646973 1.10556641 57.31793945 0.93457031 58.31884766 C-5.84229896 96.15974942 -24.14426871 133.84867595 -48.5625 163.375 C-49.00835449 163.91560059 -49.45420898 164.45620117 -49.91357422 165.01318359 C-53.08194067 168.84250434 -56.30530616 172.62109017 -59.5625 176.375 C-60.35914063 177.29667969 -61.15578125 178.21835937 -61.9765625 179.16796875 C-65.9280479 183.65582416 -69.96609401 187.75159298 -74.5390625 191.6015625 C-76.78789624 193.57254806 -78.85267962 195.66915835 -80.9375 197.8125 C-93.01325282 209.92989335 -93.01325282 209.92989335 -99.5 211.0625 C-102.5625 210.375 -102.5625 210.375 -104.5 209.1875 C-105.94184346 206.72788469 -105.85686684 205.19671647 -105.5625 202.375 C-104.19921875 200.453125 -104.19921875 200.453125 -102.25 198.625 C-101.50878906 197.92632813 -100.76757812 197.22765625 -100.00390625 196.5078125 C-97.61941045 194.42471697 -95.17383488 192.45986211 -92.6875 190.5 C-80.43989907 180.64718138 -68.94991875 168.99142449 -59.5625 156.375 C-59.06943359 155.71532227 -58.57636719 155.05564453 -58.06835938 154.37597656 C-51.08681249 144.99685219 -44.34876393 135.54725199 -38.5625 125.375 C-38.18029297 124.70484863 -37.79808594 124.03469727 -37.40429688 123.34423828 C-20.82529997 93.96315542 -10.02828325 60.18315415 -8.01953125 26.41015625 C-7.97865891 25.72837311 -7.93778656 25.04658997 -7.89567566 24.34414673 C-7.70104749 20.9704421 -7.54151836 17.60116959 -7.4206543 14.22363281 C-7.36433838 13.0012793 -7.30802246 11.77892578 -7.25 10.51953125 C-7.21261719 9.43003174 -7.17523437 8.34053223 -7.13671875 7.21801758 C-6.28299073 2.99112013 -4.33144927 0.63387062 0 0 Z " fill="#BBBBB9" transform="translate(808.5625,428.625)"/>
<path d="M0 0 C26.4 0 52.8 0 80 0 C78.06142021 3.87715958 75.85988187 6.58138708 72.9375 9.6875 C72.4209082 10.24131348 71.90431641 10.79512695 71.37207031 11.36572266 C66.74744952 16.2832631 62.01210054 21.09091328 57.25 25.875 C56.20573853 26.92627075 56.20573853 26.92627075 55.14038086 27.9987793 C51.0775744 32.04908038 46.9067043 35.91507154 42.55761719 39.65673828 C41.68199569 40.41185889 40.81759407 41.18240593 40 42 C38.33248354 41.96724521 36.66564025 41.8980954 35 41.8125 C29.22365659 41.79751597 24.73637481 42.56038023 20 46 C15.57676257 50.82365682 13.27768482 55.47440682 13 62 C8.13112025 63.90005063 5.57710066 64 0 64 C0 42.88 0 21.76 0 0 Z " fill="#313536" transform="translate(512,512)"/>
<path d="M0 0 C4.89115434 4.67497073 4.89115434 4.67497073 5.3515625 8.7265625 C4.94211328 12.98483438 3.78841246 14.68826921 1.0390625 17.9765625 C-1.8244104 19.67188291 -4.83951191 20.77174502 -7.96484375 21.89453125 C-8.85007217 22.22994431 -9.7353006 22.56535736 -10.64735413 22.91093445 C-13.41166025 23.95253821 -16.1850875 24.96618242 -18.9609375 25.9765625 C-20.63176357 26.5973518 -22.30218828 27.21922261 -23.97216797 27.84228516 C-28.08592138 29.36937912 -32.20859937 30.87055481 -36.33529663 32.36227417 C-40.79139282 33.97352309 -45.24345919 35.59582129 -49.6953125 37.21875 C-51.01730904 37.70053963 -51.01730904 37.70053963 -52.36601257 38.19206238 C-60.15169746 41.03505492 -67.90498457 43.9583048 -75.6484375 46.9140625 C-77.93612266 47.78405208 -80.22388055 48.65385044 -82.51171875 49.5234375 C-85.74254247 50.75154824 -88.97275773 51.9810875 -92.20068359 53.21679688 C-95.2416071 54.37729065 -98.2878305 55.52259456 -101.3359375 56.6640625 C-102.21596436 57.0036499 -103.09599121 57.3432373 -104.00268555 57.69311523 C-108.79092668 59.46850931 -112.77277477 60.58228708 -117.9609375 59.9765625 C-120.8359375 57.5390625 -120.8359375 57.5390625 -122.9609375 54.9765625 C-123.2909375 54.6465625 -123.6209375 54.3165625 -123.9609375 53.9765625 C-124.234375 52.0859375 -124.234375 52.0859375 -124.3359375 49.7265625 C-124.38492187 48.95828125 -124.43390625 48.19 -124.484375 47.3984375 C-123.69132671 43.72910957 -121.82876585 42.3233184 -118.9609375 39.9765625 C-115.81640625 38.4921875 -115.81640625 38.4921875 -112.1484375 37.2265625 C-110.68979218 36.70921212 -109.23147825 36.19092679 -107.7734375 35.671875 C-106.5978125 35.26050293 -106.5978125 35.26050293 -105.3984375 34.84082031 C-101.12442921 33.3253967 -96.89011064 31.70476991 -92.6484375 30.1015625 C-84.70521919 27.11890771 -76.75582294 24.15287597 -68.8046875 21.19140625 C-67.90194595 20.85516235 -66.99920441 20.51891846 -66.06910706 20.17248535 C-61.38425655 18.42813132 -56.69855585 16.68610551 -52.01147461 14.94775391 C-43.80669755 11.90373447 -35.60628036 8.85193568 -27.43359375 5.72265625 C-26.18088164 5.24630508 -24.92803875 4.77029765 -23.67504883 4.29467773 C-21.44341741 3.44552853 -19.21508575 2.58762988 -16.9909668 1.71899414 C-5.23385527 -2.73161371 -5.23385527 -2.73161371 0 0 Z " fill="#303435" transform="translate(431.9609375,431.0234375)"/>
<path d="M0 0 C2.15973195 2.15973195 2.5306948 3.21140133 3.3671875 6.078125 C3.61339844 6.91085937 3.85960937 7.74359375 4.11328125 8.6015625 C4.36464844 9.47554687 4.61601562 10.34953125 4.875 11.25 C5.11863281 12.07757812 5.36226563 12.90515625 5.61328125 13.7578125 C6.13076886 15.52209667 6.64311384 17.28789494 7.15112305 19.05493164 C7.7535843 21.14509273 8.36539076 23.23257031 8.98364258 25.31811523 C17.95746836 55.92203641 23.5858988 89.7204735 23.95605469 121.67041016 C24.0034763 124.18428271 24.12828325 126.68830813 24.2578125 129.19921875 C24.82806983 143.05934943 24.82806983 143.05934943 21.0625 147.4375 C20.51464844 147.98277344 19.96679688 148.52804687 19.40234375 149.08984375 C16.52506412 153.00903523 17.01567621 158.29713659 17 163 C16.67 163 16.34 163 16 163 C16 160.69 16 158.38 16 156 C10.72 156 5.44 156 0 156 C0 104.52 0 53.04 0 0 Z " fill="#8A8A89" transform="translate(341,527)"/>
<path d="M0 0 C4.45508087 0.51225669 7.40267478 2.25145759 11.17578125 4.57421875 C11.85576172 4.96158203 12.53574219 5.34894531 13.23632812 5.74804688 C16.184905 7.52660023 18.02012438 8.75335503 19.6796875 11.81640625 C19.18412305 15.84210266 16.39662289 17.78348629 13.48828125 20.32421875 C8.85560331 24.28747616 8.85560331 24.28747616 6.48046875 29.765625 C6.44179688 30.63058594 6.403125 31.49554688 6.36328125 32.38671875 C11.2824962 34.52550786 16.2377453 36.54845186 21.2265625 38.51953125 C23.36328125 39.38671875 23.36328125 39.38671875 25.36328125 40.38671875 C25.77822717 45.51975352 24.66717531 48.28488269 21.98828125 52.63671875 C21.36179687 53.673125 20.7353125 54.70953125 20.08984375 55.77734375 C18.36328125 58.38671875 18.36328125 58.38671875 16.36328125 60.38671875 C14.078125 60.8203125 14.078125 60.8203125 11.36328125 60.38671875 C8.40066721 58.01059017 5.84845073 55.37100822 3.1796875 52.671875 C0.10181351 50.17457086 -1.73610954 49.65671674 -5.63671875 49.38671875 C-7.8479756 53.17461165 -8.70514467 57.28595896 -9.69921875 61.51171875 C-11.51678632 69.14685389 -11.51678632 69.14685389 -12.63671875 71.38671875 C-16.03874308 70.09747519 -19.14236429 68.62151115 -22.28125 66.78515625 C-23.12236328 66.2953125 -23.96347656 65.80546875 -24.83007812 65.30078125 C-26.12655273 64.53894531 -26.12655273 64.53894531 -27.44921875 63.76171875 C-28.33287109 63.24609375 -29.21652344 62.73046875 -30.12695312 62.19921875 C-32.29866664 60.93140761 -34.46850055 59.66049527 -36.63671875 58.38671875 C-34.44249098 52.6079551 -34.44249098 52.6079551 -31.63671875 50.38671875 C-30.97671875 50.38671875 -30.31671875 50.38671875 -29.63671875 50.38671875 C-29.40984375 49.82984375 -29.18296875 49.27296875 -28.94921875 48.69921875 C-27.63671875 46.38671875 -27.63671875 46.38671875 -24.94921875 43.88671875 C-24.18609375 43.06171875 -23.42296875 42.23671875 -22.63671875 41.38671875 C-22.61961537 39.29904999 -22.61961537 39.29904999 -23.63671875 37.38671875 C-25.40289143 36.21219539 -25.40289143 36.21219539 -27.63671875 35.5 C-28.84328125 35.05237305 -28.84328125 35.05237305 -30.07421875 34.59570312 C-30.91984375 34.29986328 -31.76546875 34.00402344 -32.63671875 33.69921875 C-34.30406976 33.09302483 -35.97077319 32.48504577 -37.63671875 31.875 C-38.37921875 31.61243408 -39.12171875 31.34986816 -39.88671875 31.0793457 C-41.63671875 30.38671875 -41.63671875 30.38671875 -42.63671875 29.38671875 C-42.63671875 22.32178849 -39.12106987 15.72082496 -34.63671875 10.38671875 C-31.80859375 9.1953125 -31.80859375 9.1953125 -28.63671875 9.38671875 C-26.17554857 11.1328791 -24.208709 12.7450392 -22.07421875 14.82421875 C-18.03776812 18.93663647 -18.03776812 18.93663647 -12.734375 20.734375 C-12.04214844 20.61964844 -11.34992187 20.50492187 -10.63671875 20.38671875 C-10.45496094 19.84144531 -10.27320313 19.29617188 -10.0859375 18.734375 C-9.55755183 17.14921798 -9.02748635 15.56462029 -8.49609375 13.98046875 C-7.93144237 12.27624822 -7.37895507 10.56794 -6.83984375 8.85546875 C-6.46085938 7.664375 -6.46085938 7.664375 -6.07421875 6.44921875 C-5.84605469 5.71832031 -5.61789062 4.98742187 -5.3828125 4.234375 C-4.17970766 1.25495831 -3.17350592 0.46544754 0 0 Z " fill="#FCFCFC" transform="translate(783.63671875,254.61328125)"/>
<path d="M0 0 C3.8625118 1.79118763 7.51075226 3.9201385 11.1875 6.0625 C12.27321289 6.68302246 13.35892578 7.30354492 14.47753906 7.94287109 C16.79634653 9.26955692 19.1125325 10.59990161 21.42529297 11.93701172 C24.98519162 13.99421267 28.55578487 16.03227993 32.12890625 18.06640625 C36.85753034 20.75977777 41.58304952 23.45846148 46.3046875 26.1640625 C51.43915764 29.10622101 56.5756141 32.04486143 61.71411133 34.97998047 C63.46679143 35.98119033 65.2192388 36.98280775 66.97143555 37.98486328 C70.54371666 40.02767054 74.11686842 42.06864352 77.69921875 44.09375 C84.7434973 48.086326 91.72810006 52.1739091 98.6875 56.3125 C99.56220947 56.82876953 100.43691895 57.34503906 101.33813477 57.87695312 C102.56874634 58.61268555 102.56874634 58.61268555 103.82421875 59.36328125 C104.55729248 59.79938721 105.29036621 60.23549316 106.0456543 60.68481445 C107.9829765 61.98854396 109.50471984 63.20664394 111 65 C111.54068562 68.63031776 111.46379841 70.32214079 109.375 73.375 C106.26758154 75.50112842 104.72931036 75.36851996 101 75 C97.81298828 73.51367188 97.81298828 73.51367188 94.4453125 71.46875 C93.20361488 70.72758915 91.96174905 69.98671006 90.71972656 69.24609375 C90.09731079 68.86888184 89.47489502 68.49166992 88.83361816 68.10302734 C86.08074831 66.44701696 83.28639416 64.86625286 80.4921875 63.28125 C79.41815674 62.66749512 78.34412598 62.05374023 77.23754883 61.42138672 C74.90673611 60.08954209 72.57585058 58.7578256 70.24487305 57.42626953 C64.69832706 54.25763282 59.15225432 51.08819321 53.60974121 47.9125061 C50.67774447 46.23260888 47.74514486 44.55376543 44.8125 42.875 C43.94688446 42.37924469 43.94688446 42.37924469 43.06378174 41.87347412 C35.72138119 37.67000181 28.35372668 33.5161561 20.95776367 29.40771484 C12.71746738 24.82816971 4.5115607 20.22186951 -3.5 15.25 C-4.1590332 14.84346191 -4.81806641 14.43692383 -5.49707031 14.01806641 C-9.87382476 11.25235047 -9.87382476 11.25235047 -11 9 C-11.57003257 2.72964169 -11.57003257 2.72964169 -9.4375 0 C-6.03351394 -1.3965071 -3.44296979 -1.00236885 0 0 Z " fill="#FCFCFC" transform="translate(549,567)"/>
<path d="M0 0 C5.20138691 1.37169318 9.68266388 4.77005103 14.20703125 7.58203125 C15.90694966 8.53470456 17.61518359 9.47271612 19.33203125 10.39453125 C31.64999461 17.06382856 43.86138503 23.91953985 56.00805664 30.89550781 C60.77999205 33.63384101 65.5644957 36.34633539 70.37109375 39.0234375 C71.3969458 39.59666748 72.42279785 40.16989746 73.47973633 40.76049805 C75.44828459 41.85916015 77.41932811 42.9533681 79.39331055 44.04223633 C85.78657503 47.61747335 91.99948747 51.37448747 97.20703125 56.58203125 C97.07467332 60.22187439 96.96514873 62.67812195 94.58203125 65.51953125 C91.31780849 66.97984143 88.67823447 67.2462151 85.20703125 66.58203125 C81.43042572 64.8786514 77.97247294 62.70312143 74.45703125 60.51953125 C72.30765381 59.22379785 70.15654603 57.93093133 68.00390625 56.640625 C66.88822266 55.9688623 65.77253906 55.29709961 64.62304688 54.60498047 C59.05293492 51.30638501 53.38063895 48.19807627 47.70703125 45.08203125 C32.42999369 36.65332087 17.34033657 27.91115481 2.40673828 18.88793945 C0.33994158 17.66093662 -1.75061014 16.49207418 -3.85546875 15.33203125 C-6.79296875 13.58203125 -6.79296875 13.58203125 -7.79296875 11.58203125 C-8.05480691 8.04721605 -8.15817543 5.41985834 -6.73046875 2.14453125 C-4.49027309 0.33792184 -2.88219173 -0.16382985 0 0 Z " fill="#FDFDFC" transform="translate(641.79296875,412.41796875)"/>
<path d="M0 0 C2.30078125 0.8359375 2.30078125 0.8359375 4.30078125 2.8359375 C4.70703125 5.68359375 4.70703125 5.68359375 4.30078125 8.8359375 C2.39453125 11.14453125 2.39453125 11.14453125 -0.19921875 13.2734375 C-1.11960937 14.04945313 -2.04 14.82546875 -2.98828125 15.625 C-3.88289062 16.35460937 -4.7775 17.08421875 -5.69921875 17.8359375 C-16.34146409 26.83459283 -25.95626631 36.19795016 -33.69921875 47.8359375 C-34.42753906 48.90457031 -35.15585937 49.97320312 -35.90625 51.07421875 C-49.88557496 71.91628431 -61.2277821 97.08763846 -61.265625 122.59375 C-61.86566833 125.69667675 -63.26261854 126.90361535 -65.69921875 128.8359375 C-68.58128276 128.76564326 -70.0841674 128.33048073 -72.33154297 126.5234375 C-74.81497545 123.45926662 -74.03090361 119.56291922 -73.69921875 115.8359375 C-73.14629314 111.80084678 -72.39258708 107.82498598 -71.57421875 103.8359375 C-71.23644409 102.18380249 -71.23644409 102.18380249 -70.8918457 100.49829102 C-65.46005635 74.97800541 -53.20778129 49.30250785 -35.69921875 29.8359375 C-35.23757324 29.31547852 -34.77592773 28.79501953 -34.30029297 28.25878906 C-8.71163534 -0.52950606 -8.71163534 -0.52950606 0 0 Z " fill="#BCBCB9" transform="translate(643.69921875,339.1640625)"/>
<path d="M0 0 C3 0.4375 3 0.4375 4.875 1.4375 C9.64782579 9.92252363 3.62273179 27.07752112 1.3828125 35.85644531 C-3.51250242 53.22423699 -11.04265032 71.04334323 -22 85.4375 C-22.61246582 86.25541016 -22.61246582 86.25541016 -23.23730469 87.08984375 C-31.76548653 98.44389459 -40.90788493 109.49077344 -52 118.4375 C-52.66773438 119.0046875 -53.33546875 119.571875 -54.0234375 120.15625 C-58.37676119 123.69228304 -61.36852337 125.20285514 -67 125.4375 C-68.99828692 123.27935013 -70.00705374 122.13111813 -69.9765625 119.1328125 C-68.59274352 115.3134721 -65.90752537 113.43734279 -62.8125 111 C-51.51169102 101.69181749 -41.0060907 91.78676409 -33 79.4375 C-32.00419922 77.91382813 -32.00419922 77.91382813 -30.98828125 76.359375 C-19.20420403 57.77420179 -10.17321302 37.37120927 -7.48828125 15.3828125 C-7.40489502 14.70379883 -7.32150879 14.02478516 -7.2355957 13.32519531 C-7.01312736 11.42464712 -6.81819208 9.52093444 -6.625 7.6171875 C-5.73040271 3.0659238 -4.74715176 0.69229297 0 0 Z " fill="#BCBCB9" transform="translate(773,463.5625)"/>
<path d="M0 0 C9.76151701 5.21223859 19.34696736 10.73297605 28.94189453 16.24365234 C31.05695683 17.45838635 33.1725517 18.67219334 35.28857422 19.88525391 C42.87240514 24.23398595 50.44363537 28.60371283 58 33 C58.77569336 33.44956055 59.55138672 33.89912109 60.35058594 34.36230469 C62.19906932 35.43860331 64.03901259 36.52756533 65.875 37.625 C66.80054688 38.17414062 67.72609375 38.72328125 68.6796875 39.2890625 C71.3510773 41.25887518 73.12950937 43.26259247 75 46 C75.62214724 50.2772623 75.30952891 52.40387025 73.3125 56.25 C70.88505768 59.13668817 69.52481301 60.66840397 66 62 C59.40217969 62.12259049 54.69363965 60.20732623 49.25 56.6875 C47.78846342 55.77153242 46.32481267 54.85893201 44.859375 53.94921875 C44.08529297 53.46759277 43.31121094 52.9859668 42.51367188 52.48974609 C39.81295696 50.88914757 37.06077751 49.44838259 34.265625 48.01953125 C33.3075293 47.51655518 32.34943359 47.0135791 31.36230469 46.49536133 C29.48665261 45.51545951 27.59674352 44.56227406 25.69238281 43.6394043 C19.3919907 40.27078991 19.3919907 40.27078991 18.25512695 36.58520508 C18.02705662 34.0409801 18.00053037 31.55269342 18 29 C16.11037611 22.21332264 13.4909617 16.10670192 7.30078125 12.37109375 C4.55880138 10.85791408 1.7990312 9.40434151 -1 8 C-0.67 5.36 -0.34 2.72 0 0 Z " fill="#FDFDFD" transform="translate(570,678)"/>
<path d="M0 0 C0.33 0 0.66 0 1 0 C1 41.91 1 83.82 1 127 C-2.96 127 -6.92 127 -11 127 C-11.24234375 126.04480469 -11.4846875 125.08960938 -11.734375 124.10546875 C-13.56130331 117.02382409 -15.51426462 110.16093122 -18.265625 103.3671875 C-19.08048369 100.74056852 -19.29598302 98.73321823 -19 96 C-17.33784732 94.66104368 -15.67036393 93.32869858 -14 92 C-10.53305555 87.24818157 -9.26934448 82.41541483 -9.45703125 76.5703125 C-10.27928551 72.67791465 -12.34891651 69.90613776 -14.78515625 66.8125 C-17.95011499 59.48526433 -14.22005039 49.275208 -12.6875 41.75 C-12.46457275 40.6475293 -12.24164551 39.54505859 -12.01196289 38.40917969 C-10.3736392 30.46614657 -8.43322097 22.73940163 -6 15 C-5.47212891 13.19015625 -5.47212891 13.19015625 -4.93359375 11.34375 C-2.25693374 2.25693374 -2.25693374 2.25693374 0 0 Z " fill="#303435" transform="translate(682,556)"/>
<path d="M0 0 C4.77668014 3.09079303 6.15975636 8.87081027 8 14 C8.969375 13.67 9.93875 13.34 10.9375 13 C15.27637092 11.79181846 19.53388325 11.16368084 24 12 C27.10507227 14.57493798 27.86956835 16.08697847 28.4375 20.0625 C27.93749732 23.41966083 27.29523424 24.54292232 25 27 C22.30078125 28.265625 22.30078125 28.265625 19.3125 29.25 C18.31863281 29.58515625 17.32476562 29.9203125 16.30078125 30.265625 C15.54152344 30.50796875 14.78226562 30.7503125 14 31 C14.28875 31.7734375 14.5775 32.546875 14.875 33.34375 C18.90651558 44.65439093 18.90651558 44.65439093 18 51 C16.5 53.5 16.5 53.5 14 55 C11.18820495 55.60499688 8.80909398 55.63262654 6 55 C0.98125778 51.09653383 -0.23866304 43.87424613 -2 38 C-6.21268148 38.69641756 -6.21268148 38.69641756 -10.4140625 39.45703125 C-16.29883539 40.40316965 -16.29883539 40.40316965 -19.5 38.5625 C-21.69103569 34.8194807 -22 32.37346439 -22 28 C-19.84472531 24.20261126 -16.73771155 23.47742327 -12.75 22.25 C-11.17002911 21.82075935 -9.58764086 21.39994006 -8 21 C-8.32484375 20.1646875 -8.32484375 20.1646875 -8.65625 19.3125 C-10.60067351 13.98333928 -11.76903548 9.67163665 -11 4 C-7.74010218 0.16482609 -4.95707565 -0.84375756 0 0 Z " fill="#323637" transform="translate(314,274)"/>
<path d="M0 0 C3.32472595 3.78330883 3.28730852 7.11575508 3 12 C-1.66763992 14.03442095 -6.35443663 15.92450542 -11.12890625 17.69921875 C-11.81086563 17.95330002 -12.49282501 18.20738129 -13.19544983 18.46916199 C-14.67930562 19.021921 -16.16342055 19.57398478 -17.64776611 20.12542725 C-20.07324995 21.02723471 -22.49747019 21.93236769 -24.92138672 22.83837891 C-61.13411279 36.37192401 -61.13411279 36.37192401 -77.875 42.4375 C-78.85847412 42.79626221 -79.84194824 43.15502441 -80.85522461 43.5246582 C-81.74604736 43.84523193 -82.63687012 44.16580566 -83.5546875 44.49609375 C-84.30218262 44.76607178 -85.04967773 45.0360498 -85.81982422 45.31420898 C-88.19208134 46.06042066 -90.55516448 46.5533112 -93 47 C-95.47785723 43.33708062 -96.48964169 40.3890815 -97 36 C-91.20796934 31.51023068 -84.52137659 29.3743214 -77.6953125 26.89453125 C-76.37106793 26.40684803 -75.04708823 25.91844507 -73.72335815 25.42936707 C-70.23343909 24.14202203 -66.74019216 22.86396326 -63.24609375 21.5880127 C-59.09642826 20.07081513 -54.95073075 18.54282052 -50.80443954 17.01643181 C-47.42265794 15.7717975 -44.04016734 14.52918452 -40.65582275 13.29153442 C-34.35938137 10.98701296 -28.07521169 8.65834488 -21.81542969 6.25537109 C-20.71045135 5.83285568 -19.60547302 5.41034027 -18.4670105 4.97502136 C-16.4212241 4.19010534 -14.37799344 3.39848118 -12.33792114 2.59883118 C-11.43733978 2.25386093 -10.53675842 1.90889069 -9.60888672 1.5534668 C-8.83406952 1.25159958 -8.05925232 0.94973236 -7.26095581 0.63871765 C-4.70022137 -0.08468715 -2.64778911 -0.25734913 0 0 Z " fill="#303435" transform="translate(409,409)"/>
<path d="M0 0 C5.23930677 0.16752812 9.24102611 3.04181641 13.6015625 5.703125 C15.48543753 6.81681157 17.36955879 7.93008171 19.25390625 9.04296875 C20.20894043 9.6138623 21.16397461 10.18475586 22.14794922 10.77294922 C26.45296577 13.33009784 30.8092476 15.79462037 35.1640625 18.265625 C36.88454248 19.24925194 38.60458253 20.23364869 40.32421875 21.21875 C43.93541878 23.28675218 47.54965241 25.34931671 51.16615295 27.40803528 C53.55929201 28.77180375 55.95000565 30.13978548 58.34024048 31.50863647 C60.07025281 32.49772452 61.80304754 33.48194077 63.53588867 34.46606445 C65.1191394 35.37424927 65.1191394 35.37424927 66.734375 36.30078125 C67.6742627 36.83711182 68.61415039 37.37344238 69.58251953 37.92602539 C71.74103904 39.30289053 73.41991424 40.42473517 74.9765625 42.453125 C74.6640625 45.640625 74.6640625 45.640625 73.9765625 48.453125 C69.40893519 49.71547327 66.89779299 49.7512716 62.68359375 47.48828125 C61.04102786 46.51583205 59.41018798 45.52341085 57.7890625 44.515625 C55.91991195 43.39996686 54.05008378 42.28544342 52.1796875 41.171875 C51.18130859 40.56988281 50.18292969 39.96789062 49.15429688 39.34765625 C44.09070565 36.32879731 38.95580544 33.43586862 33.8269043 30.5300293 C24.26726629 25.10598233 14.75488497 19.60189626 5.2890625 14.015625 C4.35650635 13.46592041 3.4239502 12.91621582 2.46313477 12.34985352 C1.61807373 11.84897217 0.7730127 11.34809082 -0.09765625 10.83203125 C-0.83588623 10.3944751 -1.57411621 9.95691895 -2.3347168 9.50610352 C-4.0234375 8.453125 -4.0234375 8.453125 -5.0234375 7.453125 C-5.2109375 5.015625 -5.2109375 5.015625 -5.0234375 2.453125 C-3.0234375 0.453125 -3.0234375 0.453125 0 0 Z " fill="#FBFBFB" transform="translate(673.0234375,382.546875)"/>
<path d="M0 0 C0.33 0 0.66 0 1 0 C1 56.76 1 113.52 1 172 C-55.76 172 -112.52 172 -171 172 C-171 228.76 -171 285.52 -171 344 C-227.76 344 -284.52 344 -343 344 C-343 343.67 -343 343.34 -343 343 C-286.57 343 -230.14 343 -172 343 C-172 286.57 -172 230.14 -172 172 C-175.96 172 -179.92 172 -184 172 C-184 171.67 -184 171.34 -184 171 C-180.04 171 -176.08 171 -172 171 C-172.33 129.42 -172.66 87.84 -173 45 C-173.99 45.495 -173.99 45.495 -175 46 C-174.01 43.03 -173.02 40.06 -172 37 C-171.67 37 -171.34 37 -171 37 C-171 81.22 -171 125.44 -171 171 C-114.57 171 -58.14 171 0 171 C0 114.57 0 58.14 0 0 Z " fill="#646666" transform="translate(855,512)"/>
<path d="M0 0 C0.33 0 0.66 0 1 0 C1 52.14 1 104.28 1 158 C6.28 158 11.56 158 17 158 C17 158.33 17 158.66 17 159 C11.72 159 6.44 159 1 159 C1 215.76 1 272.52 1 331 C-44.87 331 -90.74 331 -138 331 C-138 330.67 -138 330.34 -138 330 C-92.46 330 -46.92 330 0 330 C0 273.57 0 217.14 0 159 C-56.43 159 -112.86 159 -171 159 C-171 205.2 -171 251.4 -171 299 C-171.33 299 -171.66 299 -172 299 C-172 252.47 -172 205.94 -172 158 C-115.24 158 -58.48 158 0 158 C0 105.86 0 53.72 0 0 Z " fill="#595D5D" transform="translate(340,525)"/>
<path d="M0 0 C4.30867285 1.2739659 8.11527689 3.5900657 12.00341797 5.79833984 C13.42521362 6.59050903 13.42521362 6.59050903 14.87573242 7.39868164 C17.94863156 9.11985678 21.00900172 10.86144571 24.06591797 12.61083984 C25.64469727 13.51431152 25.64469727 13.51431152 27.25537109 14.43603516 C34.22491033 18.43958683 41.17484504 22.47355283 48.06591797 26.61083984 C49.09773193 27.21661865 50.1295459 27.82239746 51.19262695 28.4465332 C52.19495361 29.05247314 53.19728027 29.65841309 54.22998047 30.28271484 C55.14086426 30.82637695 56.05174805 31.37003906 56.99023438 31.93017578 C59.06591797 33.61083984 59.06591797 33.61083984 59.75341797 37.54833984 C59.52654297 38.55896484 59.29966797 39.56958984 59.06591797 40.61083984 C55.37583661 40.04073161 52.75712324 39.06082477 49.58935547 37.09912109 C48.75275391 36.58800781 47.91615234 36.07689453 47.05419922 35.55029297 C46.19181641 35.01339844 45.32943359 34.47650391 44.44091797 33.92333984 C38.35878775 30.17222574 32.24432043 26.56259146 25.95361328 23.17114258 C20.69152188 20.32788707 15.47509169 17.40245039 10.25341797 14.48583984 C9.1609375 13.87869141 8.06845703 13.27154297 6.94287109 12.64599609 C-4.29564247 6.3666562 -4.29564247 6.3666562 -7.93408203 3.61083984 C-7.93408203 2.95083984 -7.93408203 2.29083984 -7.93408203 1.61083984 C-4.74053957 -0.51818847 -3.66840389 -0.66462847 0 0 Z " fill="#FAF9F8" transform="translate(670.93408203125,406.38916015625)"/>
<path d="M0 0 C0.33 0 0.66 0 1 0 C1 44.55 1 89.1 1 135 C-3.29 135 -7.58 135 -12 135 C-12 134.67 -12 134.34 -12 134 C-8.04 134 -4.08 134 0 134 C-0.33 92.42 -0.66 50.84 -1 8 C-1.99 8.495 -1.99 8.495 -3 9 C-2.01 6.03 -1.02 3.06 0 0 Z " fill="#4B4E4F" transform="translate(683,549)"/>
<path d="M0 0 C0.66 0.33 1.32 0.66 2 1 C2 2.98 2 4.96 2 7 C5.56045177 8.18681726 8.43808337 8.09689832 12.1875 8.0625 C13.45980469 8.05347656 14.73210937 8.04445313 16.04296875 8.03515625 C17.01878906 8.02355469 17.99460937 8.01195312 19 8 C17.3515625 11.84375 17.3515625 11.84375 14.1875 13.25 C8.58675079 14.56782334 8.58675079 14.56782334 6 14 C1.80298681 10.75187675 -1.57577279 7.22216645 -3 2 C-2.01 1.34 -1.02 0.68 0 0 Z " fill="#2B2F2F" transform="translate(302,416)"/>
<path d="M0 0 C0.33 0 0.66 0 1 0 C1 6.27 1 12.54 1 19 C0.01 18.67 -0.98 18.34 -2 18 C-1.8590651 15.56212615 -1.71245458 13.12482147 -1.5625 10.6875 C-1.52318359 9.99720703 -1.48386719 9.30691406 -1.44335938 8.59570312 C-1.25072585 5.52838465 -0.97677283 2.93031848 0 0 Z " fill="#282C2D" transform="translate(159,820)"/>
<path d="M0 0 C0.66 0 1.32 0 2 0 C2.05386629 2.12472576 2.09273071 4.24983652 2.125 6.375 C2.14820313 7.55835938 2.17140625 8.74171875 2.1953125 9.9609375 C2 13 2 13 0 15 C-0.66 12.03 -1.32 9.06 -2 6 C-1.34 6 -0.68 6 0 6 C0 4.02 0 2.04 0 0 Z " fill="#E6E7E6" transform="translate(870,176)"/>
<path d="M0 0 C2.51445576 2.51445576 2.63167345 3.46406513 3 7 C2.64648118 16.35351882 2.64648118 16.35351882 0 19 C0 12.73 0 6.46 0 0 Z " fill="#949492" transform="translate(341,527)"/>
<path d="M0 0 C-0.33 1.65 -0.66 3.3 -1 5 C-3.97 5 -6.94 5 -10 5 C-10.33 4.34 -10.66 3.68 -11 3 C-9.73160474 2.49384702 -8.46016898 1.99530901 -7.1875 1.5 C-6.12595703 1.08234375 -6.12595703 1.08234375 -5.04296875 0.65625 C-3 0 -3 0 0 0 Z " fill="#353938" transform="translate(512,761)"/>
<path d="M0 0 C0.29296875 5.95703125 0.29296875 5.95703125 0 8 C-0.99 8.99 -1.98 9.98 -3 11 C-3.33 7.7 -3.66 4.4 -4 1 C-2 0 -2 0 0 0 Z " fill="#C3C4C2" transform="translate(520,631)"/>
<path d="M0 0 C3.96 0 7.92 0 12 0 C8.68987756 3.31012244 7.46840411 3.50351065 3 4 C2.01 2.68 1.02 1.36 0 0 Z " fill="#2B2E2F" transform="translate(420,448)"/>
<path d="M0 0 C3.96 0.33 7.92 0.66 12 1 C12 1.66 12 2.32 12 3 C7.71 3 3.42 3 -1 3 C-0.67 2.01 -0.34 1.02 0 0 Z " fill="#2A2D2E" transform="translate(404,669)"/>
<path d="M0 0 C3.63 0 7.26 0 11 0 C10 2 10 2 8.15234375 2.6328125 C7.42144531 2.79523437 6.69054687 2.95765625 5.9375 3.125 C4.83728516 3.37636719 4.83728516 3.37636719 3.71484375 3.6328125 C3.14894531 3.75398437 2.58304687 3.87515625 2 4 C1.34 2.68 0.68 1.36 0 0 Z " fill="#282C2B" transform="translate(394,784)"/>
<path d="M0 0 C2 1 2 1 2 1 Z M-4 2 C-1.03 2.33 1.94 2.66 5 3 C5 3.66 5 4.32 5 5 C1.37 5 -2.26 5 -6 5 C-5.34 4.01 -4.68 3.02 -4 2 Z " fill="#272D2E" transform="translate(475,643)"/>
<path d="M0 0 C3.3 0 6.6 0 10 0 C10 0.99 10 1.98 10 3 C6.7 2.67 3.4 2.34 0 2 C0 1.34 0 0.68 0 0 Z " fill="#282E2E" transform="translate(472,624)"/>
<path d="M0 0 C1.4370809 -0.05422947 2.87475462 -0.09289723 4.3125 -0.125 C5.11300781 -0.14820313 5.91351563 -0.17140625 6.73828125 -0.1953125 C9 0 9 0 12 2 C7.74433453 3.16063604 4.3164922 2.76173392 0 2 C0 1.34 0 0.68 0 0 Z " fill="#292E2E" transform="translate(375,464)"/>
<path d="M0 0 C0.66 0 1.32 0 2 0 C2.33 1.32 2.66 2.64 3 4 C-1.62 4 -6.24 4 -11 4 C-11 3.67 -11 3.34 -11 3 C-7.7 3 -4.4 3 -1 3 C-0.67 2.01 -0.34 1.02 0 0 Z " fill="#393C3C" transform="translate(787,508)"/>
<path d="M0 0 C0.66 0.33 1.32 0.66 2 1 C2 3.31 2 5.62 2 8 C1.01 8 0.02 8 -1 8 C-1.625 5.125 -1.625 5.125 -2 2 C-1.34 1.34 -0.68 0.68 0 0 Z " fill="#292B2B" transform="translate(410,413)"/>
<path d="M0 0 C-1.0975223 2.99324263 -1.67682892 3.84610901 -4.625 5.25 C-5.40875 5.4975 -6.1925 5.745 -7 6 C-7 4.68 -7 3.36 -7 2 C-2.25 0 -2.25 0 0 0 Z " fill="#3D3F3F" transform="translate(436,463)"/>
<path d="M0 0 C3.3 0.33 6.6 0.66 10 1 C9.67 1.66 9.34 2.32 9 3 C5.7 2.67 2.4 2.34 -1 2 C-0.67 1.34 -0.34 0.68 0 0 Z " fill="#2A2D2D" transform="translate(457,760)"/>
<path d="M0 0 C2.97 0.33 5.94 0.66 9 1 C8.67 1.66 8.34 2.32 8 3 C4.9375 3.625 4.9375 3.625 2 4 C1.34 2.68 0.68 1.36 0 0 Z " fill="#292E2C" transform="translate(472,712)"/>
<path d="M0 0 C3.375 -0.125 3.375 -0.125 7 0 C7.66 0.66 8.32 1.32 9 2 C5.30458414 2.95024979 2.69541586 2.95024979 -1 2 C-0.67 1.34 -0.34 0.68 0 0 Z " fill="#24292A" transform="translate(537,688)"/>
<path d="M0 0 C2.71631546 0.90543849 5.34771188 1.92474806 8 3 C8 3.33 8 3.66 8 4 C4.7 4 1.4 4 -2 4 C-1.34 2.68 -0.68 1.36 0 0 Z " fill="#2B3030" transform="translate(449,652)"/>
<path d="M0 0 C-1.49097658 3.7952131 -3.75700849 5.61042731 -7 8 C-7 5 -7 5 -4.625 2.3125 C-2 0 -2 0 0 0 Z " fill="#B0B1AE" transform="translate(276,324)"/>
<path d="M0 0 C-3.01490557 1.00496852 -5.04181692 1.10335303 -8.1875 1.0625 C-9.53908203 1.04896484 -9.53908203 1.04896484 -10.91796875 1.03515625 C-11.60503906 1.02355469 -12.29210937 1.01195312 -13 1 C-13 0.34 -13 -0.32 -13 -1 C-4.57142857 -2.42857143 -4.57142857 -2.42857143 0 0 Z " fill="#282C2B" transform="translate(349,343)"/>
<path d="M0 0 C1.32 0.33 2.64 0.66 4 1 C4 1.99 4 2.98 4 4 C2.02 4 0.04 4 -2 4 C-1.34 2.68 -0.68 1.36 0 0 Z " fill="#272C2E" transform="translate(492,724)"/>
<path d="M0 0 C1.32 0.66 2.64 1.32 4 2 C3.67 2.99 3.34 3.98 3 5 C3 4.34 3 3.68 3 3 C1.02 3.33 -0.96 3.66 -3 4 C-2.01 2.68 -1.02 1.36 0 0 Z " fill="#282C2C" transform="translate(314,276)"/>
<path d="M0 0 C2 3 2 3 2 7 C1.34 7 0.68 7 0 7 C-0.33 7.66 -0.66 8.32 -1 9 C-1.125 2.25 -1.125 2.25 0 0 Z " fill="#444748" transform="translate(867,182)"/>
<path d="M0 0 C1.98 0 3.96 0 6 0 C6 1.32 6 2.64 6 4 C1.125 2.25 1.125 2.25 0 0 Z " fill="#B2B2B1" transform="translate(650,624)"/>
<path d="M0 0 C-0.33 0.66 -0.66 1.32 -1 2 C-3.31 2 -5.62 2 -8 2 C-6.14210462 -1.71579076 -3.44525918 -1.06921837 0 0 Z " fill="#2A2C2B" transform="translate(285,374)"/>
</svg>
